<svg width="500" height="500" viewBox="0 0 500 500" fill="none" xmlns="http://www.w3.org/2000/svg">
<g opacity="0.05">
<path d="M268.883 268.826H266.777L258.665 331.69H258.595C258.037 335.403 254.374 338.272 249.928 338.272C245.097 338.272 241.18 334.887 241.18 330.71C241.18 330.687 241.183 330.665 241.183 330.644L233.224 268.826H231.119C228.012 268.826 225.492 266.649 225.492 263.964C225.492 262.82 225.952 261.77 226.718 260.939H273.283C274.048 261.77 274.509 262.82 274.509 263.964C274.509 266.649 271.99 268.826 268.883 268.826ZM303.955 383.358C313.956 383.358 322.06 391.553 322.06 401.688C322.06 411.858 313.956 420.131 303.955 420.131C293.99 420.131 285.851 411.858 285.851 401.688C285.851 391.553 293.99 383.358 303.955 383.358ZM442.605 199.617C435.676 171.702 422.44 150.702 394.365 150.702H358.156V193.546C358.156 226.761 329.996 254.717 297.883 254.717H201.514C175.117 254.717 153.274 277.309 153.274 303.746V395.616C153.274 421.764 176.009 437.142 201.514 444.645C232.054 453.624 261.341 455.247 297.883 444.645C322.173 437.611 346.124 423.458 346.124 395.616V358.844H249.754V346.589H346.124H394.365C422.404 346.589 432.854 327.03 442.605 297.673C452.678 267.45 452.25 238.386 442.605 199.617Z" fill="white"/>
<path d="M275.169 236.351H224.831C220.641 236.351 219.086 233.414 219.086 229.793C219.086 228.458 219.173 227.219 219.493 226.182H261.274C262.341 224.357 263.153 222.038 263.153 219.462C263.153 213.969 260.401 209.947 256.761 208.953C256.447 213.09 251.546 212.689 249.874 210.903C247.486 208.152 248.738 202.983 250.763 201.073C246.35 202.267 243.426 203.155 239.929 206.384C236.74 209.335 234.819 212.411 234.552 216.844C234.409 219.243 234.753 221.687 235.631 223.913C233.31 222.356 231.209 220.387 229.461 218C227.283 215.038 225.983 211.849 225.143 208.266C223.29 200.605 223.978 193.212 224.417 191.252C225.028 188.521 225.467 185.387 226.709 182.952C228.802 178.883 231.189 175.433 234.772 172.568C233.042 176.934 236.396 182.407 242.021 180.955C242.099 180.907 242.155 180.851 242.242 180.811C246.024 179.227 248.203 176.485 249.34 173.524C251.25 168.748 249.101 161.822 244.802 159.195C249.578 158.956 254.536 161.105 257.88 163.732C261.462 166.598 263.134 170.161 263.487 175.081C264.031 182.541 255.988 189.964 260.564 194.778C266.171 198.58 269.286 188.607 265.579 183.554C271.425 186.104 273.699 191.55 274.97 196.45C276.641 202.898 276.401 206.899 274.415 212.288C271.661 219.757 269.056 223.111 261.792 226.182H280.225C280.702 227.219 280.916 228.458 280.916 229.793C280.916 233.414 279.357 236.351 275.169 236.351ZM195.442 113.931C185.44 113.931 177.337 105.736 177.337 95.6015C177.337 85.4309 185.44 77.1601 195.442 77.1601C205.407 77.1601 213.546 85.4309 213.546 95.6015C213.546 105.736 205.407 113.931 195.442 113.931ZM297.883 51.5219C281.786 48.8428 265.102 47.5837 249.044 47.5837C248.567 47.5837 248.094 47.5837 247.618 47.5855C231.125 47.6619 215.373 49.0693 201.513 51.5219C160.687 58.7339 153.273 73.8313 153.273 101.673V138.446H249.755V150.702H153.273H117.065C89.024 150.702 64.4714 167.556 56.792 199.618C47.9334 236.367 47.5407 259.3 56.792 297.673C63.6509 326.236 80.028 346.589 108.069 346.589H141.242V302.508C141.242 270.664 168.795 242.573 201.513 242.573H297.883C324.709 242.573 346.124 220.485 346.124 193.546V101.673C346.124 75.5272 324.065 55.886 297.883 51.5219Z" fill="white"/>
<path d="M261.519 226.301C261.614 226.262 261.698 226.222 261.792 226.182H261.274C261.221 226.272 261.171 226.367 261.117 226.454C261.251 226.406 261.384 226.359 261.519 226.301Z" fill="white"/>
</g>
<path d="M250 102C331.738 102 398 168.262 398 250C398 331.738 331.738 398 250 398C168.262 398 102 331.738 102 250C102 168.262 168.262 102 250 102Z" stroke="url(#paint0_linear_2001_126)" stroke-width="4"/>
<rect x="72" y="161" width="96" height="28.01" rx="10" fill="#1E1E1E" stroke="url(#paint1_linear_2001_126)" stroke-width="4"/>
<path d="M101.805 171.273V180H99.9597V171.273H101.805ZM105.104 176.216V180H103.289V173.455H105.019V174.609H105.096C105.241 174.229 105.483 173.928 105.824 173.706C106.165 173.482 106.579 173.369 107.064 173.369C107.519 173.369 107.915 173.469 108.253 173.668C108.591 173.866 108.854 174.151 109.042 174.52C109.229 174.886 109.323 175.324 109.323 175.832V180H107.508V176.156C107.51 175.756 107.408 175.443 107.201 175.219C106.993 174.991 106.708 174.878 106.344 174.878C106.1 174.878 105.884 174.93 105.697 175.036C105.512 175.141 105.367 175.294 105.262 175.496C105.16 175.695 105.107 175.935 105.104 176.216ZM113.711 180.128C113.041 180.128 112.464 179.986 111.981 179.702C111.501 179.415 111.132 179.017 110.873 178.509C110.617 178 110.49 177.415 110.49 176.753C110.49 176.082 110.619 175.494 110.877 174.989C111.139 174.48 111.509 174.084 111.99 173.8C112.47 173.513 113.041 173.369 113.703 173.369C114.274 173.369 114.774 173.473 115.203 173.68C115.632 173.888 115.971 174.179 116.221 174.554C116.471 174.929 116.609 175.369 116.634 175.875H114.921C114.873 175.548 114.745 175.286 114.538 175.087C114.333 174.885 114.065 174.784 113.732 174.784C113.451 174.784 113.205 174.861 112.995 175.014C112.788 175.165 112.626 175.385 112.509 175.675C112.393 175.964 112.335 176.315 112.335 176.727C112.335 177.145 112.392 177.5 112.505 177.793C112.622 178.085 112.785 178.308 112.995 178.462C113.205 178.615 113.451 178.692 113.732 178.692C113.94 178.692 114.126 178.649 114.291 178.564C114.458 178.479 114.596 178.355 114.704 178.193C114.815 178.028 114.887 177.831 114.921 177.601H116.634C116.606 178.101 116.47 178.541 116.225 178.922C115.984 179.3 115.65 179.595 115.224 179.808C114.798 180.021 114.294 180.128 113.711 180.128ZM119.612 171.273V180H117.797V171.273H119.612ZM125.264 177.213V173.455H127.079V180H125.336V178.811H125.268C125.12 179.195 124.874 179.503 124.531 179.736C124.19 179.969 123.774 180.085 123.282 180.085C122.845 180.085 122.46 179.986 122.127 179.787C121.795 179.588 121.535 179.305 121.347 178.939C121.163 178.572 121.069 178.134 121.066 177.622V173.455H122.882V177.298C122.884 177.685 122.988 177.99 123.193 178.214C123.397 178.439 123.671 178.551 124.015 178.551C124.234 178.551 124.438 178.501 124.629 178.402C124.819 178.3 124.972 178.149 125.089 177.95C125.208 177.751 125.267 177.506 125.264 177.213ZM129.652 182.455C129.422 182.455 129.206 182.436 129.004 182.399C128.805 182.365 128.64 182.321 128.51 182.267L128.919 180.912C129.132 180.977 129.324 181.013 129.494 181.018C129.667 181.024 129.817 180.984 129.942 180.899C130.069 180.814 130.173 180.669 130.253 180.464L130.359 180.188L128.011 173.455H129.92L131.275 178.261H131.344L132.711 173.455H134.633L132.089 180.707C131.967 181.06 131.801 181.366 131.591 181.628C131.383 181.892 131.121 182.095 130.802 182.237C130.484 182.382 130.101 182.455 129.652 182.455ZM138.334 180.128C137.661 180.128 137.081 179.991 136.596 179.719C136.113 179.443 135.741 179.054 135.479 178.551C135.218 178.045 135.087 177.447 135.087 176.757C135.087 176.084 135.218 175.493 135.479 174.984C135.741 174.476 136.108 174.08 136.583 173.795C137.06 173.511 137.62 173.369 138.262 173.369C138.694 173.369 139.096 173.439 139.468 173.578C139.843 173.714 140.17 173.92 140.448 174.196C140.729 174.472 140.948 174.818 141.104 175.236C141.26 175.651 141.339 176.136 141.339 176.693V177.192H135.812V176.067H139.63C139.63 175.805 139.573 175.574 139.459 175.372C139.346 175.17 139.188 175.013 138.986 174.899C138.787 174.783 138.556 174.724 138.292 174.724C138.016 174.724 137.772 174.788 137.559 174.916C137.349 175.041 137.184 175.21 137.064 175.423C136.945 175.634 136.884 175.868 136.881 176.126V177.196C136.881 177.52 136.941 177.8 137.06 178.036C137.182 178.271 137.354 178.453 137.576 178.581C137.797 178.709 138.06 178.773 138.364 178.773C138.566 178.773 138.751 178.744 138.918 178.688C139.086 178.631 139.229 178.545 139.349 178.432C139.468 178.318 139.559 178.179 139.621 178.014L141.3 178.125C141.215 178.528 141.04 178.881 140.776 179.182C140.515 179.48 140.177 179.713 139.762 179.881C139.35 180.045 138.874 180.128 138.334 180.128Z" fill="white"/>
<rect x="74" y="309" width="96" height="28.01" rx="10" fill="#1E1E1E" stroke="url(#paint2_linear_2001_126)" stroke-width="4"/>
<path d="M97.2292 328V319.273H103.11V320.794H99.0744V322.874H102.807V324.395H99.0744V326.479H103.127V328H97.2292ZM106.06 321.455L107.262 323.743L108.493 321.455H110.355L108.459 324.727L110.406 328H108.553L107.262 325.737L105.992 328H104.117L106.06 324.727L104.185 321.455H106.06ZM111.433 330.455V321.455H113.223V322.554H113.304C113.384 322.378 113.499 322.199 113.649 322.017C113.803 321.832 114.002 321.679 114.246 321.557C114.493 321.432 114.8 321.369 115.166 321.369C115.644 321.369 116.084 321.494 116.487 321.744C116.891 321.991 117.213 322.365 117.455 322.865C117.696 323.362 117.817 323.986 117.817 324.736C117.817 325.466 117.699 326.082 117.463 326.585C117.23 327.085 116.912 327.464 116.509 327.723C116.108 327.979 115.659 328.107 115.162 328.107C114.81 328.107 114.51 328.048 114.263 327.932C114.019 327.815 113.818 327.669 113.662 327.493C113.506 327.314 113.387 327.134 113.304 326.952H113.249V330.455H111.433ZM113.21 324.727C113.21 325.116 113.264 325.456 113.372 325.746C113.48 326.036 113.637 326.261 113.841 326.423C114.046 326.582 114.294 326.662 114.587 326.662C114.882 326.662 115.132 326.581 115.337 326.419C115.541 326.254 115.696 326.027 115.801 325.737C115.909 325.445 115.963 325.108 115.963 324.727C115.963 324.349 115.911 324.017 115.806 323.73C115.7 323.443 115.546 323.219 115.341 323.057C115.137 322.895 114.885 322.814 114.587 322.814C114.291 322.814 114.041 322.892 113.837 323.048C113.635 323.205 113.48 323.426 113.372 323.713C113.264 324 113.21 324.338 113.21 324.727ZM120.894 328.124C120.476 328.124 120.104 328.051 119.777 327.906C119.45 327.759 119.192 327.541 119.002 327.254C118.814 326.964 118.72 326.604 118.72 326.172C118.72 325.808 118.787 325.503 118.921 325.256C119.054 325.009 119.236 324.81 119.466 324.659C119.696 324.509 119.958 324.395 120.25 324.318C120.546 324.241 120.855 324.188 121.179 324.156C121.56 324.116 121.867 324.08 122.1 324.045C122.333 324.009 122.502 323.955 122.607 323.884C122.712 323.812 122.764 323.707 122.764 323.568V323.543C122.764 323.273 122.679 323.064 122.509 322.916C122.341 322.768 122.102 322.695 121.793 322.695C121.466 322.695 121.206 322.767 121.013 322.912C120.82 323.054 120.692 323.233 120.629 323.449L118.95 323.312C119.036 322.915 119.203 322.571 119.453 322.281C119.703 321.989 120.026 321.764 120.421 321.608C120.818 321.449 121.279 321.369 121.801 321.369C122.165 321.369 122.513 321.412 122.845 321.497C123.181 321.582 123.477 321.714 123.736 321.893C123.997 322.072 124.203 322.303 124.354 322.584C124.504 322.862 124.58 323.196 124.58 323.585V328H122.858V327.092H122.807C122.702 327.297 122.561 327.477 122.385 327.634C122.209 327.787 121.997 327.908 121.75 327.996C121.503 328.081 121.218 328.124 120.894 328.124ZM121.414 326.871C121.681 326.871 121.916 326.818 122.121 326.713C122.325 326.605 122.486 326.46 122.602 326.278C122.719 326.097 122.777 325.891 122.777 325.661V324.966C122.72 325.003 122.642 325.037 122.543 325.068C122.446 325.097 122.337 325.124 122.215 325.149C122.093 325.172 121.97 325.193 121.848 325.213C121.726 325.23 121.615 325.246 121.516 325.26C121.303 325.291 121.117 325.341 120.958 325.409C120.798 325.477 120.675 325.57 120.587 325.686C120.499 325.8 120.455 325.942 120.455 326.112C120.455 326.359 120.544 326.548 120.723 326.679C120.905 326.807 121.135 326.871 121.414 326.871ZM127.803 324.216V328H125.988V321.455H127.718V322.609H127.795C127.94 322.229 128.183 321.928 128.524 321.706C128.865 321.482 129.278 321.369 129.764 321.369C130.218 321.369 130.615 321.469 130.953 321.668C131.291 321.866 131.553 322.151 131.741 322.52C131.928 322.886 132.022 323.324 132.022 323.832V328H130.207V324.156C130.21 323.756 130.107 323.443 129.9 323.219C129.693 322.991 129.407 322.878 129.044 322.878C128.799 322.878 128.583 322.93 128.396 323.036C128.211 323.141 128.066 323.294 127.961 323.496C127.859 323.695 127.806 323.935 127.803 324.216ZM135.865 328.107C135.368 328.107 134.917 327.979 134.514 327.723C134.113 327.464 133.795 327.085 133.559 326.585C133.327 326.082 133.21 325.466 133.21 324.736C133.21 323.986 133.331 323.362 133.572 322.865C133.814 322.365 134.135 321.991 134.535 321.744C134.939 321.494 135.381 321.369 135.861 321.369C136.227 321.369 136.532 321.432 136.777 321.557C137.024 321.679 137.223 321.832 137.373 322.017C137.527 322.199 137.643 322.378 137.723 322.554H137.778V319.273H139.589V328H137.8V326.952H137.723C137.638 327.134 137.517 327.314 137.361 327.493C137.207 327.669 137.007 327.815 136.76 327.932C136.515 328.048 136.217 328.107 135.865 328.107ZM136.44 326.662C136.733 326.662 136.98 326.582 137.182 326.423C137.386 326.261 137.542 326.036 137.65 325.746C137.761 325.456 137.817 325.116 137.817 324.727C137.817 324.338 137.763 324 137.655 323.713C137.547 323.426 137.39 323.205 137.186 323.048C136.981 322.892 136.733 322.814 136.44 322.814C136.142 322.814 135.89 322.895 135.686 323.057C135.481 323.219 135.327 323.443 135.221 323.73C135.116 324.017 135.064 324.349 135.064 324.727C135.064 325.108 135.116 325.445 135.221 325.737C135.329 326.027 135.484 326.254 135.686 326.419C135.89 326.581 136.142 326.662 136.44 326.662ZM144.065 328.128C143.392 328.128 142.812 327.991 142.326 327.719C141.843 327.443 141.471 327.054 141.21 326.551C140.948 326.045 140.818 325.447 140.818 324.757C140.818 324.084 140.948 323.493 141.21 322.984C141.471 322.476 141.839 322.08 142.313 321.795C142.791 321.511 143.35 321.369 143.992 321.369C144.424 321.369 144.826 321.439 145.198 321.578C145.573 321.714 145.9 321.92 146.178 322.196C146.46 322.472 146.678 322.818 146.835 323.236C146.991 323.651 147.069 324.136 147.069 324.693V325.192H141.542V324.067H145.36C145.36 323.805 145.303 323.574 145.19 323.372C145.076 323.17 144.919 323.013 144.717 322.899C144.518 322.783 144.286 322.724 144.022 322.724C143.747 322.724 143.502 322.788 143.289 322.916C143.079 323.041 142.914 323.21 142.795 323.423C142.676 323.634 142.615 323.868 142.612 324.126V325.196C142.612 325.52 142.671 325.8 142.791 326.036C142.913 326.271 143.085 326.453 143.306 326.581C143.528 326.709 143.791 326.773 144.095 326.773C144.296 326.773 144.481 326.744 144.649 326.688C144.816 326.631 144.96 326.545 145.079 326.432C145.198 326.318 145.289 326.179 145.352 326.014L147.031 326.125C146.945 326.528 146.771 326.881 146.507 327.182C146.245 327.48 145.907 327.713 145.492 327.881C145.08 328.045 144.605 328.128 144.065 328.128Z" fill="white"/>
<rect x="200" y="378" width="96" height="28.01" rx="10" fill="#1E1E1E" stroke="url(#paint3_linear_2001_126)" stroke-width="4"/>
<path d="M229.376 396.124V387.397H232.819C233.478 387.397 234.04 387.515 234.506 387.751C234.975 387.983 235.332 388.314 235.576 388.743C235.823 389.17 235.947 389.671 235.947 390.248C235.947 390.827 235.822 391.326 235.572 391.743C235.322 392.158 234.96 392.476 234.485 392.698C234.013 392.92 233.442 393.03 232.772 393.03H230.467V391.547H232.474C232.826 391.547 233.119 391.499 233.352 391.402C233.585 391.306 233.758 391.161 233.871 390.968C233.988 390.775 234.046 390.535 234.046 390.248C234.046 389.958 233.988 389.714 233.871 389.515C233.758 389.316 233.583 389.165 233.347 389.063C233.114 388.958 232.82 388.905 232.465 388.905H231.221V396.124H229.376ZM234.089 392.152L236.258 396.124H234.221L232.099 392.152H234.089ZM240.094 396.252C239.421 396.252 238.841 396.116 238.355 395.843C237.873 395.567 237.5 395.178 237.239 394.675C236.978 394.17 236.847 393.572 236.847 392.881C236.847 392.208 236.978 391.617 237.239 391.108C237.5 390.6 237.868 390.204 238.343 389.92C238.82 389.635 239.38 389.493 240.022 389.493C240.453 389.493 240.855 389.563 241.228 389.702C241.603 389.839 241.929 390.045 242.208 390.32C242.489 390.596 242.708 390.942 242.864 391.36C243.02 391.775 243.098 392.26 243.098 392.817V393.316H237.571V392.191H241.39C241.39 391.929 241.333 391.698 241.219 391.496C241.105 391.295 240.948 391.137 240.746 391.023C240.547 390.907 240.316 390.849 240.051 390.849C239.776 390.849 239.532 390.912 239.319 391.04C239.108 391.165 238.944 391.334 238.824 391.547C238.705 391.758 238.644 391.992 238.641 392.251V393.32C238.641 393.644 238.701 393.924 238.82 394.16C238.942 394.395 239.114 394.577 239.336 394.705C239.557 394.833 239.82 394.897 240.124 394.897C240.326 394.897 240.51 394.868 240.678 394.812C240.846 394.755 240.989 394.67 241.108 394.556C241.228 394.442 241.319 394.303 241.381 394.138L243.06 394.249C242.975 394.652 242.8 395.005 242.536 395.306C242.275 395.604 241.936 395.837 241.522 396.005C241.11 396.17 240.634 396.252 240.094 396.252ZM250.21 389.579L247.921 396.124H245.876L243.587 389.579H245.505L246.864 394.262H246.933L248.288 389.579H250.21ZM251.138 396.124V389.579H252.954V396.124H251.138ZM252.05 388.735C251.781 388.735 251.549 388.645 251.356 388.466C251.165 388.285 251.07 388.067 251.07 387.814C251.07 387.564 251.165 387.35 251.356 387.171C251.549 386.989 251.781 386.898 252.05 386.898C252.32 386.898 252.55 386.989 252.741 387.171C252.934 387.35 253.031 387.564 253.031 387.814C253.031 388.067 252.934 388.285 252.741 388.466C252.55 388.645 252.32 388.735 252.05 388.735ZM259.854 391.445L258.192 391.547C258.164 391.405 258.103 391.277 258.009 391.164C257.915 391.047 257.792 390.955 257.638 390.887C257.488 390.816 257.307 390.78 257.097 390.78C256.816 390.78 256.578 390.84 256.385 390.959C256.192 391.076 256.096 391.232 256.096 391.428C256.096 391.584 256.158 391.716 256.283 391.824C256.408 391.932 256.623 392.019 256.926 392.084L258.111 392.323C258.748 392.454 259.222 392.664 259.534 392.954C259.847 393.243 260.003 393.624 260.003 394.096C260.003 394.525 259.877 394.901 259.624 395.225C259.374 395.549 259.03 395.802 258.593 395.983C258.158 396.162 257.657 396.252 257.088 396.252C256.222 396.252 255.532 396.072 255.017 395.711C254.506 395.347 254.206 394.853 254.118 394.228L255.904 394.134C255.958 394.398 256.088 394.6 256.296 394.739C256.503 394.876 256.769 394.944 257.093 394.944C257.411 394.944 257.667 394.883 257.86 394.76C258.056 394.635 258.155 394.475 258.158 394.279C258.155 394.114 258.086 393.979 257.949 393.874C257.813 393.766 257.603 393.684 257.319 393.627L256.185 393.401C255.546 393.273 255.07 393.052 254.757 392.736C254.448 392.421 254.293 392.019 254.293 391.53C254.293 391.11 254.407 390.748 254.634 390.444C254.864 390.14 255.186 389.905 255.601 389.741C256.019 389.576 256.507 389.493 257.067 389.493C257.894 389.493 258.544 389.668 259.019 390.018C259.496 390.367 259.775 390.843 259.854 391.445ZM263.013 396.248C262.595 396.248 262.223 396.175 261.896 396.03C261.57 395.883 261.311 395.665 261.121 395.378C260.933 395.089 260.839 394.728 260.839 394.296C260.839 393.932 260.906 393.627 261.04 393.38C261.173 393.133 261.355 392.934 261.585 392.783C261.815 392.633 262.077 392.519 262.369 392.442C262.665 392.366 262.974 392.312 263.298 392.28C263.679 392.241 263.986 392.204 264.219 392.17C264.452 392.133 264.621 392.079 264.726 392.008C264.831 391.937 264.884 391.831 264.884 391.692V391.667C264.884 391.397 264.798 391.188 264.628 391.04C264.46 390.893 264.222 390.819 263.912 390.819C263.585 390.819 263.325 390.891 263.132 391.036C262.939 391.178 262.811 391.357 262.749 391.573L261.07 391.437C261.155 391.039 261.322 390.695 261.572 390.405C261.822 390.113 262.145 389.888 262.54 389.732C262.938 389.573 263.398 389.493 263.92 389.493C264.284 389.493 264.632 389.536 264.964 389.621C265.3 389.706 265.597 389.839 265.855 390.018C266.116 390.197 266.322 390.427 266.473 390.708C266.624 390.986 266.699 391.32 266.699 391.709V396.124H264.977V395.216H264.926C264.821 395.421 264.68 395.601 264.504 395.758C264.328 395.911 264.116 396.032 263.869 396.12C263.622 396.205 263.337 396.248 263.013 396.248ZM263.533 394.995C263.8 394.995 264.036 394.942 264.24 394.837C264.445 394.729 264.605 394.584 264.722 394.402C264.838 394.221 264.896 394.015 264.896 393.785V393.09C264.839 393.127 264.761 393.161 264.662 393.192C264.565 393.221 264.456 393.248 264.334 393.273C264.212 393.296 264.089 393.317 263.967 393.337C263.845 393.354 263.734 393.37 263.635 393.384C263.422 393.415 263.236 393.465 263.077 393.533C262.918 393.601 262.794 393.694 262.706 393.81C262.618 393.924 262.574 394.066 262.574 394.236C262.574 394.483 262.663 394.672 262.842 394.803C263.024 394.931 263.254 394.995 263.533 394.995Z" fill="white"/>
<rect x="330" y="309" width="96" height="28.01" rx="10" fill="#1E1E1E" stroke="url(#paint4_linear_2001_126)" stroke-width="4"/>
<path d="M350.3 328V319.273H353.743C354.405 319.273 354.969 319.399 355.434 319.652C355.9 319.902 356.256 320.25 356.5 320.696C356.747 321.139 356.871 321.651 356.871 322.23C356.871 322.81 356.746 323.321 356.496 323.764C356.246 324.207 355.883 324.553 355.409 324.8C354.937 325.047 354.366 325.17 353.696 325.17H351.501V323.692H353.398C353.753 323.692 354.045 323.631 354.275 323.509C354.508 323.384 354.682 323.212 354.795 322.993C354.912 322.771 354.97 322.517 354.97 322.23C354.97 321.94 354.912 321.687 354.795 321.472C354.682 321.253 354.508 321.084 354.275 320.964C354.042 320.842 353.747 320.781 353.389 320.781H352.145V328H350.3ZM358.035 328V321.455H359.795V322.597H359.863C359.982 322.19 360.183 321.884 360.464 321.676C360.745 321.466 361.069 321.361 361.436 321.361C361.526 321.361 361.624 321.366 361.73 321.378C361.835 321.389 361.927 321.405 362.007 321.425V323.036C361.921 323.01 361.803 322.987 361.653 322.967C361.502 322.947 361.365 322.938 361.24 322.938C360.972 322.938 360.734 322.996 360.524 323.112C360.316 323.226 360.151 323.385 360.029 323.589C359.91 323.794 359.85 324.03 359.85 324.297V328H358.035ZM365.598 328.128C364.936 328.128 364.363 327.987 363.881 327.706C363.4 327.422 363.03 327.027 362.768 326.521C362.507 326.013 362.376 325.423 362.376 324.753C362.376 324.077 362.507 323.486 362.768 322.98C363.03 322.472 363.4 322.077 363.881 321.795C364.363 321.511 364.936 321.369 365.598 321.369C366.26 321.369 366.831 321.511 367.311 321.795C367.794 322.077 368.166 322.472 368.427 322.98C368.689 323.486 368.819 324.077 368.819 324.753C368.819 325.423 368.689 326.013 368.427 326.521C368.166 327.027 367.794 327.422 367.311 327.706C366.831 327.987 366.26 328.128 365.598 328.128ZM365.606 326.722C365.907 326.722 366.159 326.636 366.361 326.466C366.562 326.293 366.714 326.057 366.817 325.759C366.922 325.46 366.974 325.121 366.974 324.74C366.974 324.359 366.922 324.02 366.817 323.722C366.714 323.423 366.562 323.187 366.361 323.014C366.159 322.841 365.907 322.754 365.606 322.754C365.302 322.754 365.047 322.841 364.839 323.014C364.635 323.187 364.48 323.423 364.375 323.722C364.273 324.02 364.221 324.359 364.221 324.74C364.221 325.121 364.273 325.46 364.375 325.759C364.48 326.057 364.635 326.293 364.839 326.466C365.047 326.636 365.302 326.722 365.606 326.722ZM372.949 330.591C372.361 330.591 371.856 330.51 371.436 330.348C371.018 330.189 370.686 329.972 370.439 329.696C370.192 329.42 370.031 329.111 369.957 328.767L371.636 328.541C371.687 328.672 371.768 328.794 371.879 328.908C371.99 329.021 372.136 329.112 372.318 329.18C372.503 329.251 372.727 329.287 372.991 329.287C373.386 329.287 373.711 329.19 373.967 328.997C374.226 328.807 374.355 328.487 374.355 328.038V326.841H374.278C374.199 327.023 374.079 327.195 373.92 327.357C373.761 327.518 373.557 327.651 373.307 327.753C373.057 327.855 372.758 327.906 372.412 327.906C371.92 327.906 371.473 327.793 371.069 327.565C370.669 327.335 370.349 326.984 370.111 326.513C369.875 326.038 369.757 325.439 369.757 324.714C369.757 323.973 369.878 323.354 370.119 322.857C370.361 322.359 370.682 321.987 371.082 321.74C371.486 321.493 371.927 321.369 372.407 321.369C372.774 321.369 373.081 321.432 373.328 321.557C373.575 321.679 373.774 321.832 373.925 322.017C374.078 322.199 374.196 322.378 374.278 322.554H374.346V321.455H376.149V328.064C376.149 328.621 376.013 329.087 375.74 329.462C375.467 329.837 375.089 330.118 374.606 330.305C374.126 330.496 373.574 330.591 372.949 330.591ZM372.987 326.543C373.28 326.543 373.527 326.47 373.729 326.325C373.933 326.178 374.089 325.967 374.197 325.695C374.308 325.419 374.363 325.089 374.363 324.706C374.363 324.322 374.309 323.99 374.202 323.709C374.094 323.425 373.937 323.205 373.733 323.048C373.528 322.892 373.28 322.814 372.987 322.814C372.689 322.814 372.437 322.895 372.233 323.057C372.028 323.216 371.873 323.437 371.768 323.722C371.663 324.006 371.611 324.334 371.611 324.706C371.611 325.084 371.663 325.411 371.768 325.686C371.876 325.959 372.031 326.17 372.233 326.321C372.437 326.469 372.689 326.543 372.987 326.543ZM377.594 328V321.455H379.354V322.597H379.422C379.541 322.19 379.741 321.884 380.023 321.676C380.304 321.466 380.628 321.361 380.994 321.361C381.085 321.361 381.183 321.366 381.288 321.378C381.393 321.389 381.486 321.405 381.565 321.425V323.036C381.48 323.01 381.362 322.987 381.211 322.967C381.061 322.947 380.923 322.938 380.798 322.938C380.531 322.938 380.292 322.996 380.082 323.112C379.875 323.226 379.71 323.385 379.588 323.589C379.469 323.794 379.409 324.03 379.409 324.297V328H377.594ZM384.183 328.124C383.765 328.124 383.393 328.051 383.066 327.906C382.74 327.759 382.481 327.541 382.291 327.254C382.103 326.964 382.009 326.604 382.009 326.172C382.009 325.808 382.076 325.503 382.21 325.256C382.343 325.009 382.525 324.81 382.755 324.659C382.985 324.509 383.247 324.395 383.539 324.318C383.835 324.241 384.144 324.188 384.468 324.156C384.849 324.116 385.156 324.08 385.389 324.045C385.622 324.009 385.791 323.955 385.896 323.884C386.001 323.812 386.053 323.707 386.053 323.568V323.543C386.053 323.273 385.968 323.064 385.798 322.916C385.63 322.768 385.392 322.695 385.082 322.695C384.755 322.695 384.495 322.767 384.302 322.912C384.109 323.054 383.981 323.233 383.919 323.449L382.24 323.312C382.325 322.915 382.492 322.571 382.742 322.281C382.992 321.989 383.315 321.764 383.71 321.608C384.107 321.449 384.568 321.369 385.09 321.369C385.454 321.369 385.802 321.412 386.134 321.497C386.47 321.582 386.767 321.714 387.025 321.893C387.286 322.072 387.492 322.303 387.643 322.584C387.794 322.862 387.869 323.196 387.869 323.585V328H386.147V327.092H386.096C385.991 327.297 385.85 327.477 385.674 327.634C385.498 327.787 385.286 327.908 385.039 327.996C384.792 328.081 384.507 328.124 384.183 328.124ZM384.703 326.871C384.97 326.871 385.205 326.818 385.41 326.713C385.615 326.605 385.775 326.46 385.892 326.278C386.008 326.097 386.066 325.891 386.066 325.661V324.966C386.009 325.003 385.931 325.037 385.832 325.068C385.735 325.097 385.626 325.124 385.504 325.149C385.382 325.172 385.259 325.193 385.137 325.213C385.015 325.23 384.904 325.246 384.805 325.26C384.592 325.291 384.406 325.341 384.247 325.409C384.088 325.477 383.964 325.57 383.876 325.686C383.788 325.8 383.744 325.942 383.744 326.112C383.744 326.359 383.833 326.548 384.012 326.679C384.194 326.807 384.424 326.871 384.703 326.871ZM389.277 328V321.455H391.007V322.609H391.084C391.22 322.226 391.448 321.923 391.766 321.702C392.084 321.48 392.465 321.369 392.908 321.369C393.357 321.369 393.739 321.482 394.054 321.706C394.369 321.928 394.58 322.229 394.685 322.609H394.753C394.887 322.234 395.128 321.935 395.477 321.71C395.83 321.483 396.246 321.369 396.726 321.369C397.337 321.369 397.833 321.564 398.213 321.953C398.597 322.339 398.789 322.888 398.789 323.598V328H396.977V323.956C396.977 323.592 396.881 323.32 396.688 323.138C396.494 322.956 396.253 322.865 395.963 322.865C395.634 322.865 395.377 322.97 395.192 323.18C395.007 323.388 394.915 323.662 394.915 324.003V328H393.155V323.918C393.155 323.597 393.063 323.341 392.878 323.151C392.696 322.96 392.456 322.865 392.158 322.865C391.956 322.865 391.774 322.916 391.612 323.018C391.453 323.118 391.327 323.259 391.233 323.44C391.139 323.619 391.093 323.83 391.093 324.071V328H389.277ZM402.089 328.124C401.671 328.124 401.299 328.051 400.972 327.906C400.646 327.759 400.387 327.541 400.197 327.254C400.009 326.964 399.916 326.604 399.916 326.172C399.916 325.808 399.982 325.503 400.116 325.256C400.249 325.009 400.431 324.81 400.661 324.659C400.892 324.509 401.153 324.395 401.445 324.318C401.741 324.241 402.051 324.188 402.374 324.156C402.755 324.116 403.062 324.08 403.295 324.045C403.528 324.009 403.697 323.955 403.802 323.884C403.907 323.812 403.96 323.707 403.96 323.568V323.543C403.96 323.273 403.874 323.064 403.704 322.916C403.536 322.768 403.298 322.695 402.988 322.695C402.661 322.695 402.401 322.767 402.208 322.912C402.015 323.054 401.887 323.233 401.825 323.449L400.146 323.312C400.231 322.915 400.399 322.571 400.649 322.281C400.899 321.989 401.221 321.764 401.616 321.608C402.014 321.449 402.474 321.369 402.997 321.369C403.36 321.369 403.708 321.412 404.041 321.497C404.376 321.582 404.673 321.714 404.931 321.893C405.193 322.072 405.399 322.303 405.549 322.584C405.7 322.862 405.775 323.196 405.775 323.585V328H404.053V327.092H404.002C403.897 327.297 403.757 327.477 403.58 327.634C403.404 327.787 403.193 327.908 402.945 327.996C402.698 328.081 402.413 328.124 402.089 328.124ZM402.609 326.871C402.876 326.871 403.112 326.818 403.316 326.713C403.521 326.605 403.681 326.46 403.798 326.278C403.914 326.097 403.972 325.891 403.972 325.661V324.966C403.916 325.003 403.838 325.037 403.738 325.068C403.642 325.097 403.532 325.124 403.41 325.149C403.288 325.172 403.166 325.193 403.044 325.213C402.921 325.23 402.811 325.246 402.711 325.26C402.498 325.291 402.312 325.341 402.153 325.409C401.994 325.477 401.87 325.57 401.782 325.686C401.694 325.8 401.65 325.942 401.65 326.112C401.65 326.359 401.74 326.548 401.919 326.679C402.1 326.807 402.33 326.871 402.609 326.871Z" fill="white"/>
<rect x="331" y="161" width="96" height="28.01" rx="10" fill="#1E1E1E" stroke="url(#paint5_linear_2001_126)" stroke-width="4"/>
<path d="M362.684 179.124H359.591V170.397H362.71C363.588 170.397 364.343 170.572 364.977 170.921C365.61 171.268 366.098 171.766 366.439 172.417C366.782 173.067 366.954 173.846 366.954 174.752C366.954 175.661 366.782 176.442 366.439 177.096C366.098 177.749 365.608 178.251 364.968 178.6C364.332 178.949 363.571 179.124 362.684 179.124ZM361.436 177.543H362.608C363.153 177.543 363.612 177.447 363.984 177.253C364.359 177.057 364.64 176.755 364.828 176.346C365.018 175.934 365.113 175.403 365.113 174.752C365.113 174.107 365.018 173.58 364.828 173.171C364.64 172.762 364.36 172.461 363.988 172.268C363.616 172.074 363.157 171.978 362.612 171.978H361.436V177.543ZM368.287 179.124V172.579H370.102V179.124H368.287ZM369.199 171.735C368.929 171.735 368.697 171.645 368.504 171.466C368.314 171.285 368.219 171.067 368.219 170.814C368.219 170.564 368.314 170.35 368.504 170.171C368.697 169.989 368.929 169.898 369.199 169.898C369.469 169.898 369.699 169.989 369.889 170.171C370.082 170.35 370.179 170.564 370.179 170.814C370.179 171.067 370.082 171.285 369.889 171.466C369.699 171.645 369.469 171.735 369.199 171.735ZM377.002 174.445L375.341 174.547C375.312 174.405 375.251 174.278 375.157 174.164C375.064 174.047 374.94 173.955 374.787 173.887C374.636 173.816 374.456 173.78 374.245 173.78C373.964 173.78 373.727 173.84 373.534 173.959C373.341 174.076 373.244 174.232 373.244 174.428C373.244 174.584 373.306 174.716 373.431 174.824C373.556 174.932 373.771 175.019 374.075 175.084L375.26 175.323C375.896 175.454 376.37 175.664 376.683 175.954C376.995 176.243 377.152 176.624 377.152 177.096C377.152 177.525 377.025 177.901 376.772 178.225C376.522 178.549 376.179 178.802 375.741 178.983C375.306 179.162 374.805 179.252 374.237 179.252C373.37 179.252 372.68 179.072 372.166 178.711C371.654 178.347 371.355 177.853 371.267 177.228L373.052 177.134C373.106 177.398 373.237 177.6 373.444 177.739C373.652 177.876 373.917 177.944 374.241 177.944C374.559 177.944 374.815 177.883 375.008 177.76C375.204 177.635 375.304 177.475 375.306 177.279C375.304 177.114 375.234 176.979 375.098 176.874C374.961 176.766 374.751 176.684 374.467 176.627L373.333 176.401C372.694 176.273 372.218 176.052 371.906 175.736C371.596 175.421 371.441 175.019 371.441 174.53C371.441 174.11 371.555 173.748 371.782 173.444C372.012 173.14 372.335 172.905 372.75 172.741C373.167 172.576 373.656 172.493 374.216 172.493C375.042 172.493 375.693 172.668 376.167 173.018C376.645 173.367 376.923 173.843 377.002 174.445ZM381.278 179.252C380.604 179.252 380.025 179.116 379.539 178.843C379.056 178.567 378.684 178.178 378.423 177.675C378.161 177.17 378.031 176.572 378.031 175.881C378.031 175.208 378.161 174.617 378.423 174.108C378.684 173.6 379.052 173.204 379.526 172.92C380.004 172.635 380.563 172.493 381.205 172.493C381.637 172.493 382.039 172.563 382.411 172.702C382.786 172.839 383.113 173.045 383.391 173.32C383.673 173.596 383.891 173.942 384.048 174.36C384.204 174.775 384.282 175.26 384.282 175.817V176.316H378.755V175.191H382.573C382.573 174.929 382.516 174.698 382.403 174.496C382.289 174.295 382.131 174.137 381.93 174.023C381.731 173.907 381.499 173.849 381.235 173.849C380.96 173.849 380.715 173.912 380.502 174.04C380.292 174.165 380.127 174.334 380.008 174.547C379.888 174.758 379.827 174.992 379.825 175.251V176.32C379.825 176.644 379.884 176.924 380.004 177.16C380.126 177.395 380.298 177.577 380.519 177.705C380.741 177.833 381.004 177.897 381.308 177.897C381.509 177.897 381.694 177.868 381.862 177.812C382.029 177.755 382.173 177.67 382.292 177.556C382.411 177.442 382.502 177.303 382.565 177.138L384.244 177.249C384.158 177.653 383.984 178.005 383.719 178.306C383.458 178.604 383.12 178.837 382.705 179.005C382.293 179.17 381.817 179.252 381.278 179.252ZM387.282 175.34V179.124H385.467V172.579H387.197V173.733H387.273C387.418 173.353 387.661 173.052 388.002 172.83C388.343 172.606 388.756 172.493 389.242 172.493C389.697 172.493 390.093 172.593 390.431 172.792C390.769 172.991 391.032 173.275 391.219 173.644C391.407 174.01 391.501 174.448 391.501 174.956V179.124H389.685V175.28C389.688 174.88 389.586 174.567 389.379 174.343C389.171 174.116 388.886 174.002 388.522 174.002C388.278 174.002 388.062 174.054 387.874 174.16C387.69 174.265 387.545 174.418 387.44 174.62C387.337 174.819 387.285 175.059 387.282 175.34ZM387.261 171.773L386.251 171.76C386.251 171.218 386.384 170.802 386.651 170.512C386.921 170.222 387.249 170.076 387.636 170.073C387.835 170.073 388.005 170.106 388.147 170.171C388.292 170.233 388.421 170.307 388.535 170.393C388.651 170.478 388.762 170.553 388.867 170.618C388.972 170.681 389.086 170.712 389.208 170.712C389.373 170.709 389.498 170.648 389.583 170.529C389.671 170.407 389.715 170.248 389.715 170.052L390.708 170.081C390.702 170.618 390.566 171.033 390.299 171.326C390.032 171.616 389.707 171.762 389.323 171.765C389.11 171.765 388.931 171.733 388.786 171.671C388.644 171.606 388.519 171.532 388.411 171.449C388.303 171.364 388.198 171.289 388.096 171.224C387.994 171.158 387.879 171.126 387.751 171.126C387.603 171.126 387.484 171.184 387.393 171.3C387.305 171.417 387.261 171.574 387.261 171.773ZM394.798 179.248C394.38 179.248 394.008 179.175 393.681 179.03C393.355 178.883 393.096 178.665 392.906 178.378C392.718 178.089 392.625 177.728 392.625 177.296C392.625 176.932 392.691 176.627 392.825 176.38C392.958 176.133 393.14 175.934 393.37 175.783C393.6 175.633 393.862 175.519 394.154 175.442C394.45 175.366 394.76 175.312 395.083 175.28C395.464 175.241 395.771 175.204 396.004 175.17C396.237 175.133 396.406 175.079 396.511 175.008C396.616 174.937 396.669 174.831 396.669 174.692V174.667C396.669 174.397 396.583 174.188 396.413 174.04C396.245 173.893 396.007 173.819 395.697 173.819C395.37 173.819 395.11 173.891 394.917 174.036C394.724 174.178 394.596 174.357 394.534 174.573L392.855 174.437C392.94 174.039 393.108 173.695 393.358 173.405C393.608 173.113 393.93 172.888 394.325 172.732C394.723 172.573 395.183 172.493 395.706 172.493C396.069 172.493 396.417 172.536 396.75 172.621C397.085 172.706 397.382 172.839 397.64 173.018C397.902 173.197 398.108 173.427 398.258 173.708C398.409 173.986 398.484 174.32 398.484 174.709V179.124H396.762V178.216H396.711C396.606 178.421 396.466 178.601 396.289 178.758C396.113 178.911 395.902 179.032 395.654 179.12C395.407 179.205 395.122 179.248 394.798 179.248ZM395.318 177.995C395.585 177.995 395.821 177.942 396.025 177.837C396.23 177.729 396.39 177.584 396.507 177.403C396.623 177.221 396.681 177.015 396.681 176.785V176.09C396.625 176.127 396.547 176.161 396.447 176.192C396.35 176.221 396.241 176.248 396.119 176.273C395.997 176.296 395.875 176.317 395.752 176.337C395.63 176.354 395.52 176.37 395.42 176.384C395.207 176.415 395.021 176.465 394.862 176.533C394.703 176.601 394.579 176.694 394.491 176.81C394.403 176.924 394.359 177.066 394.359 177.236C394.359 177.483 394.449 177.672 394.627 177.803C394.809 177.931 395.039 177.995 395.318 177.995Z" fill="white"/>
<rect x="202" y="89" width="96" height="28.01" rx="10" fill="#1E1E1E" stroke="url(#paint6_linear_2001_126)" stroke-width="4"/>
<path d="M229.073 98.3968H231.349L233.752 104.26H233.854L236.258 98.3968H238.533V107.124H236.743V101.444H236.671L234.412 107.081H233.194L230.935 101.422H230.863V107.124H229.073V98.3968ZM242.977 107.252C242.315 107.252 241.742 107.111 241.259 106.83C240.779 106.546 240.409 106.151 240.147 105.645C239.886 105.137 239.755 104.547 239.755 103.877C239.755 103.201 239.886 102.61 240.147 102.104C240.409 101.596 240.779 101.201 241.259 100.92C241.742 100.635 242.315 100.493 242.977 100.493C243.639 100.493 244.21 100.635 244.69 100.92C245.173 101.201 245.545 101.596 245.806 102.104C246.068 102.61 246.198 103.201 246.198 103.877C246.198 104.547 246.068 105.137 245.806 105.645C245.545 106.151 245.173 106.546 244.69 106.83C244.21 107.111 243.639 107.252 242.977 107.252ZM242.985 105.846C243.286 105.846 243.538 105.76 243.74 105.59C243.941 105.417 244.093 105.181 244.195 104.883C244.301 104.584 244.353 104.245 244.353 103.864C244.353 103.483 244.301 103.144 244.195 102.846C244.093 102.547 243.941 102.312 243.74 102.138C243.538 101.965 243.286 101.878 242.985 101.878C242.681 101.878 242.426 101.965 242.218 102.138C242.014 102.312 241.859 102.547 241.754 102.846C241.651 103.144 241.6 103.483 241.6 103.864C241.6 104.245 241.651 104.584 241.754 104.883C241.859 105.181 242.014 105.417 242.218 105.59C242.426 105.76 242.681 105.846 242.985 105.846ZM249.791 107.231C249.294 107.231 248.843 107.103 248.44 106.847C248.039 106.589 247.721 106.209 247.485 105.709C247.252 105.206 247.136 104.59 247.136 103.86C247.136 103.11 247.257 102.486 247.498 101.989C247.74 101.489 248.061 101.116 248.461 100.868C248.865 100.618 249.306 100.493 249.786 100.493C250.153 100.493 250.458 100.556 250.703 100.681C250.95 100.803 251.149 100.956 251.299 101.141C251.453 101.323 251.569 101.502 251.649 101.678H251.704V98.3968H253.515V107.124H251.725V106.076H251.649C251.563 106.258 251.443 106.438 251.286 106.617C251.133 106.793 250.933 106.939 250.686 107.056C250.441 107.172 250.143 107.231 249.791 107.231ZM250.366 105.786C250.659 105.786 250.906 105.706 251.107 105.547C251.312 105.385 251.468 105.16 251.576 104.87C251.687 104.58 251.742 104.241 251.742 103.851C251.742 103.462 251.688 103.124 251.58 102.837C251.472 102.55 251.316 102.329 251.112 102.172C250.907 102.016 250.659 101.938 250.366 101.938C250.068 101.938 249.816 102.019 249.612 102.181C249.407 102.343 249.252 102.567 249.147 102.854C249.042 103.141 248.99 103.474 248.99 103.851C248.99 104.232 249.042 104.569 249.147 104.861C249.255 105.151 249.41 105.378 249.612 105.543C249.816 105.705 250.068 105.786 250.366 105.786ZM257.991 107.252C257.317 107.252 256.738 107.116 256.252 106.843C255.769 106.567 255.397 106.178 255.135 105.675C254.874 105.17 254.743 104.572 254.743 103.881C254.743 103.208 254.874 102.617 255.135 102.108C255.397 101.6 255.765 101.204 256.239 100.92C256.716 100.635 257.276 100.493 257.918 100.493C258.35 100.493 258.752 100.563 259.124 100.702C259.499 100.839 259.826 101.045 260.104 101.32C260.385 101.596 260.604 101.942 260.76 102.36C260.917 102.775 260.995 103.26 260.995 103.817V104.316H255.468V103.191H259.286C259.286 102.929 259.229 102.698 259.116 102.496C259.002 102.295 258.844 102.137 258.643 102.023C258.444 101.907 258.212 101.849 257.948 101.849C257.672 101.849 257.428 101.912 257.215 102.04C257.005 102.165 256.84 102.334 256.721 102.547C256.601 102.758 256.54 102.992 256.537 103.251V104.32C256.537 104.644 256.597 104.924 256.716 105.16C256.839 105.395 257.01 105.577 257.232 105.705C257.454 105.833 257.716 105.897 258.02 105.897C258.222 105.897 258.407 105.868 258.574 105.812C258.742 105.755 258.885 105.67 259.005 105.556C259.124 105.442 259.215 105.303 259.278 105.138L260.956 105.249C260.871 105.653 260.697 106.005 260.432 106.306C260.171 106.604 259.833 106.837 259.418 107.005C259.006 107.17 258.53 107.252 257.991 107.252ZM263.995 98.3968V107.124H262.18V98.3968H263.995ZM267.316 107.248C266.898 107.248 266.526 107.175 266.199 107.03C265.872 106.883 265.614 106.665 265.423 106.378C265.236 106.089 265.142 105.728 265.142 105.296C265.142 104.932 265.209 104.627 265.343 104.38C265.476 104.133 265.658 103.934 265.888 103.783C266.118 103.633 266.379 103.519 266.672 103.442C266.968 103.366 267.277 103.312 267.601 103.28C267.982 103.241 268.289 103.204 268.521 103.17C268.754 103.133 268.923 103.079 269.029 103.008C269.134 102.937 269.186 102.831 269.186 102.692V102.667C269.186 102.397 269.101 102.188 268.931 102.04C268.763 101.893 268.524 101.819 268.215 101.819C267.888 101.819 267.628 101.891 267.435 102.036C267.242 102.178 267.114 102.357 267.051 102.573L265.372 102.437C265.458 102.039 265.625 101.695 265.875 101.405C266.125 101.113 266.448 100.888 266.843 100.732C267.24 100.573 267.7 100.493 268.223 100.493C268.587 100.493 268.935 100.536 269.267 100.621C269.602 100.706 269.899 100.839 270.158 101.018C270.419 101.197 270.625 101.427 270.776 101.708C270.926 101.986 271.002 102.32 271.002 102.709V107.124H269.28V106.216H269.229C269.124 106.421 268.983 106.601 268.807 106.758C268.631 106.911 268.419 107.032 268.172 107.12C267.925 107.205 267.639 107.248 267.316 107.248ZM267.835 105.995C268.102 105.995 268.338 105.942 268.543 105.837C268.747 105.729 268.908 105.584 269.024 105.403C269.141 105.221 269.199 105.015 269.199 104.785V104.09C269.142 104.127 269.064 104.161 268.965 104.192C268.868 104.221 268.759 104.248 268.637 104.273C268.514 104.296 268.392 104.317 268.27 104.337C268.148 104.354 268.037 104.37 267.938 104.384C267.725 104.415 267.539 104.465 267.379 104.533C267.22 104.601 267.097 104.694 267.009 104.81C266.921 104.924 266.877 105.066 266.877 105.236C266.877 105.483 266.966 105.672 267.145 105.803C267.327 105.931 267.557 105.995 267.835 105.995Z" fill="white"/>
<path d="M250 172L257.995 236.152L317.55 211L265.99 250L317.55 289L257.995 263.848L250 328L242.005 263.848L182.45 289L234.01 250L182.45 211L242.005 236.152L250 172Z" fill="url(#paint7_linear_2001_126)"/>
<mask id="path-18-outside-1_2001_126" maskUnits="userSpaceOnUse" x="242" y="121" width="14" height="25" fill="black">
<rect fill="white" x="242" y="121" width="14" height="25"/>
<path d="M252.464 124.818V143H250.262V127.126H250.155L245.716 130.074V127.837L250.262 124.818H252.464Z"/>
</mask>
<path d="M252.464 124.818H255.464V121.818H252.464V124.818ZM252.464 143V146H255.464V143H252.464ZM250.262 143H247.262V146H250.262V143ZM250.262 127.126H253.262V124.126H250.262V127.126ZM250.155 127.126V124.126H249.25L248.496 124.627L250.155 127.126ZM245.716 130.074H242.716V135.667L247.376 132.573L245.716 130.074ZM245.716 127.837L244.057 125.337L242.716 126.228V127.837H245.716ZM250.262 124.818V121.818H249.357L248.602 122.319L250.262 124.818ZM252.464 124.818H249.464V143H252.464H255.464V124.818H252.464ZM252.464 143V140H250.262V143V146H252.464V143ZM250.262 143H253.262V127.126H250.262H247.262V143H250.262ZM250.262 127.126V124.126H250.155V127.126V130.126H250.262V127.126ZM250.155 127.126L248.496 124.627L244.057 127.575L245.716 130.074L247.376 132.573L251.815 129.626L250.155 127.126ZM245.716 130.074H248.716V127.837H245.716H242.716V130.074H245.716ZM245.716 127.837L247.376 130.336L251.921 127.317L250.262 124.818L248.602 122.319L244.057 125.337L245.716 127.837ZM250.262 124.818V127.818H252.464V124.818V121.818H250.262V124.818Z" fill="url(#paint8_linear_2001_126)" mask="url(#path-18-outside-1_2001_126)"/>
<mask id="path-20-outside-2_2001_126" maskUnits="userSpaceOnUse" x="324" y="190" width="18" height="25" fill="black">
<rect fill="white" x="324" y="190" width="18" height="25"/>
<path d="M327.314 212V210.402L333.315 203.832C334.019 203.063 334.599 202.394 335.055 201.826C335.511 201.252 335.848 200.713 336.067 200.21C336.292 199.701 336.405 199.169 336.405 198.612C336.405 197.973 336.251 197.42 335.943 196.952C335.641 196.484 335.227 196.123 334.7 195.869C334.173 195.614 333.581 195.487 332.925 195.487C332.226 195.487 331.617 195.632 331.096 195.922C330.581 196.206 330.181 196.606 329.897 197.121C329.619 197.636 329.48 198.239 329.48 198.932H327.385C327.385 197.866 327.63 196.931 328.122 196.126C328.613 195.321 329.282 194.694 330.128 194.244C330.98 193.795 331.936 193.57 332.996 193.57C334.061 193.57 335.005 193.795 335.828 194.244C336.65 194.694 337.295 195.301 337.763 196.064C338.231 196.828 338.464 197.677 338.464 198.612C338.464 199.281 338.343 199.935 338.1 200.574C337.864 201.208 337.449 201.915 336.857 202.696C336.271 203.471 335.458 204.418 334.416 205.537L330.332 209.905V210.047H338.784V212H327.314Z"/>
</mask>
<path d="M327.314 212H324.314V215H327.314V212ZM327.314 210.402L325.099 208.379L324.314 209.238V210.402H327.314ZM333.315 203.832L331.102 201.807L331.1 201.809L333.315 203.832ZM335.055 201.826L337.395 203.703L337.4 203.697L337.405 203.691L335.055 201.826ZM336.067 200.21L333.323 198.998L333.32 199.005L333.317 199.013L336.067 200.21ZM335.943 196.952L333.423 198.579L333.43 198.59L333.437 198.601L335.943 196.952ZM334.7 195.869L336.005 193.168L336.005 193.168L334.7 195.869ZM331.096 195.922L332.545 198.549L332.555 198.543L331.096 195.922ZM329.897 197.121L327.27 195.672L327.264 195.683L327.258 195.695L329.897 197.121ZM329.48 198.932V201.932H332.48V198.932H329.48ZM327.385 198.932H324.385V201.932H327.385V198.932ZM328.122 196.126L330.682 197.689L330.682 197.689L328.122 196.126ZM330.128 194.244L328.728 191.591L328.72 191.595L330.128 194.244ZM335.828 194.244L337.267 191.612V191.612L335.828 194.244ZM337.763 196.064L335.205 197.631L337.763 196.064ZM338.1 200.574L335.296 199.509L335.293 199.517L335.29 199.524L338.1 200.574ZM336.857 202.696L334.466 200.884L334.464 200.887L336.857 202.696ZM334.416 205.537L336.607 207.586L336.611 207.581L334.416 205.537ZM330.332 209.905L328.141 207.856L327.332 208.721V209.905H330.332ZM330.332 210.047H327.332V213.047H330.332V210.047ZM338.784 210.047H341.784V207.047H338.784V210.047ZM338.784 212V215H341.784V212H338.784ZM327.314 212H330.314V210.402H327.314H324.314V212H327.314ZM327.314 210.402L329.529 212.425L335.53 205.856L333.315 203.832L331.1 201.809L325.099 208.379L327.314 210.402ZM333.315 203.832L335.528 205.858C336.259 205.059 336.886 204.339 337.395 203.703L335.055 201.826L332.715 199.949C332.313 200.45 331.78 201.067 331.102 201.807L333.315 203.832ZM335.055 201.826L337.405 203.691C337.972 202.977 338.467 202.214 338.818 201.408L336.067 200.21L333.317 199.013C333.23 199.212 333.05 199.527 332.706 199.961L335.055 201.826ZM336.067 200.21L338.811 201.423C339.205 200.532 339.405 199.586 339.405 198.612H336.405H333.405C333.405 198.751 333.379 198.871 333.323 198.998L336.067 200.21ZM336.405 198.612H339.405C339.405 197.472 339.123 196.327 338.449 195.303L335.943 196.952L333.437 198.601C333.427 198.587 333.419 198.571 333.411 198.555C333.404 198.539 333.401 198.527 333.399 198.522C333.397 198.516 333.399 198.519 333.4 198.533C333.402 198.547 333.405 198.573 333.405 198.612H336.405ZM335.943 196.952L338.463 195.325C337.847 194.37 337.001 193.649 336.005 193.168L334.7 195.869L333.395 198.57C333.415 198.58 333.427 198.587 333.432 198.59C333.437 198.594 333.438 198.595 333.435 198.592C333.432 198.59 333.429 198.587 333.426 198.583C333.423 198.579 333.422 198.578 333.423 198.579L335.943 196.952ZM334.7 195.869L336.005 193.168C335.024 192.694 333.977 192.487 332.925 192.487V195.487V198.487C333.186 198.487 333.323 198.535 333.395 198.57L334.7 195.869ZM332.925 195.487V192.487C331.803 192.487 330.674 192.723 329.636 193.301L331.096 195.922L332.555 198.543C332.559 198.541 332.649 198.487 332.925 198.487V195.487ZM331.096 195.922L329.646 193.295C328.636 193.853 327.828 194.661 327.27 195.672L329.897 197.121L332.524 198.57C332.53 198.558 332.534 198.553 332.535 198.552C332.535 198.552 332.534 198.554 332.531 198.556C332.529 198.559 332.527 198.56 332.527 198.56C332.528 198.559 332.533 198.555 332.545 198.549L331.096 195.922ZM329.897 197.121L327.258 195.695C326.703 196.722 326.48 197.833 326.48 198.932H329.48H332.48C332.48 198.646 332.535 198.55 332.537 198.547L329.897 197.121ZM329.48 198.932V195.932H327.385V198.932V201.932H329.48V198.932ZM327.385 198.932H330.385C330.385 198.345 330.514 197.965 330.682 197.689L328.122 196.126L325.561 194.564C324.746 195.898 324.385 197.388 324.385 198.932H327.385ZM328.122 196.126L330.682 197.689C330.889 197.351 331.156 197.095 331.536 196.893L330.128 194.244L328.72 191.595C327.407 192.293 326.337 193.292 325.561 194.564L328.122 196.126ZM330.128 194.244L331.528 196.897C331.907 196.697 332.375 196.57 332.996 196.57V193.57V190.57C331.498 190.57 330.053 190.892 328.728 191.591L330.128 194.244ZM332.996 193.57V196.57C333.627 196.57 334.064 196.699 334.388 196.877L335.828 194.244L337.267 191.612C335.946 190.89 334.494 190.57 332.996 190.57V193.57ZM335.828 194.244L334.388 196.877C334.774 197.087 335.024 197.336 335.205 197.631L337.763 196.064L340.321 194.498C339.567 193.266 338.527 192.301 337.267 191.612L335.828 194.244ZM337.763 196.064L335.205 197.631C335.37 197.901 335.464 198.204 335.464 198.612H338.464H341.464C341.464 197.15 341.091 195.754 340.321 194.498L337.763 196.064ZM338.464 198.612H335.464C335.464 198.909 335.412 199.203 335.296 199.509L338.1 200.574L340.905 201.639C341.274 200.667 341.464 199.653 341.464 198.612H338.464ZM338.1 200.574L335.29 199.524C335.19 199.792 334.954 200.241 334.466 200.884L336.857 202.696L339.249 204.508C339.945 203.589 340.537 202.623 340.91 201.625L338.1 200.574ZM336.857 202.696L334.464 200.887C333.965 201.548 333.227 202.412 332.221 203.492L334.416 205.537L336.611 207.581C337.688 206.425 338.578 205.394 339.251 204.505L336.857 202.696ZM334.416 205.537L332.225 203.488L328.141 207.856L330.332 209.905L332.524 211.954L336.607 207.586L334.416 205.537ZM330.332 209.905H327.332V210.047H330.332H333.332V209.905H330.332ZM330.332 210.047V213.047H338.784V210.047V207.047H330.332V210.047ZM338.784 210.047H335.784V212H338.784H341.784V210.047H338.784ZM338.784 212V209H327.314V212V215H338.784V212Z" fill="url(#paint9_linear_2001_126)" mask="url(#path-20-outside-2_2001_126)"/>
<mask id="path-22-outside-3_2001_126" maskUnits="userSpaceOnUse" x="323" y="282" width="20" height="26" fill="black">
<rect fill="white" x="323" y="282" width="20" height="26"/>
<path d="M333.067 304.249C331.895 304.249 330.85 304.047 329.933 303.645C329.021 303.242 328.296 302.683 327.758 301.967C327.225 301.245 326.935 300.407 326.888 299.455H329.125C329.172 300.04 329.373 300.547 329.729 300.973C330.084 301.393 330.548 301.718 331.122 301.949C331.696 302.18 332.333 302.295 333.031 302.295C333.812 302.295 334.505 302.159 335.108 301.887C335.712 301.615 336.186 301.236 336.529 300.751C336.872 300.265 337.044 299.703 337.044 299.064C337.044 298.395 336.878 297.806 336.547 297.297C336.215 296.782 335.73 296.38 335.091 296.09C334.452 295.8 333.67 295.655 332.747 295.655H331.291V293.702H332.747C333.469 293.702 334.102 293.571 334.647 293.311C335.197 293.051 335.626 292.684 335.934 292.21C336.248 291.737 336.405 291.18 336.405 290.541C336.405 289.926 336.269 289.39 335.996 288.934C335.724 288.479 335.339 288.123 334.842 287.869C334.351 287.614 333.771 287.487 333.102 287.487C332.475 287.487 331.883 287.603 331.327 287.833C330.776 288.058 330.326 288.387 329.977 288.819C329.628 289.245 329.439 289.76 329.409 290.364H327.278C327.314 289.411 327.601 288.576 328.139 287.86C328.678 287.138 329.382 286.576 330.252 286.173C331.128 285.771 332.09 285.57 333.138 285.57C334.262 285.57 335.227 285.797 336.032 286.253C336.837 286.703 337.455 287.298 337.887 288.038C338.319 288.777 338.535 289.576 338.535 290.435C338.535 291.459 338.266 292.332 337.727 293.054C337.195 293.776 336.47 294.276 335.552 294.554V294.696C336.701 294.885 337.597 295.374 338.242 296.161C338.887 296.942 339.21 297.91 339.21 299.064C339.21 300.052 338.941 300.94 338.402 301.727C337.869 302.509 337.142 303.124 336.218 303.574C335.295 304.024 334.244 304.249 333.067 304.249Z"/>
</mask>
<path d="M329.933 303.645L328.721 306.389L328.727 306.392L329.933 303.645ZM327.758 301.967L325.343 303.748L325.352 303.759L325.36 303.77L327.758 301.967ZM326.888 299.455V296.455H323.735L323.891 299.603L326.888 299.455ZM329.125 299.455L332.115 299.213L331.892 296.455H329.125V299.455ZM329.729 300.973L327.424 302.893L327.43 302.901L327.437 302.909L329.729 300.973ZM331.122 301.949L330.003 304.733H330.003L331.122 301.949ZM336.529 300.751L334.08 299.018L336.529 300.751ZM336.547 297.297L334.024 298.921L334.028 298.928L334.033 298.934L336.547 297.297ZM335.091 296.09L333.851 298.822L333.851 298.822L335.091 296.09ZM331.291 295.655H328.291V298.655H331.291V295.655ZM331.291 293.702V290.702H328.291V293.702H331.291ZM334.647 293.311L333.364 290.599L333.352 290.605L334.647 293.311ZM335.934 292.21L333.433 290.553L333.426 290.564L333.419 290.575L335.934 292.21ZM335.996 288.934L338.572 287.396L338.572 287.396L335.996 288.934ZM334.842 287.869L333.462 290.533L333.469 290.536L333.475 290.539L334.842 287.869ZM331.327 287.833L332.461 290.611L332.469 290.608L332.476 290.604L331.327 287.833ZM329.977 288.819L332.298 290.72L332.304 290.713L332.31 290.705L329.977 288.819ZM329.409 290.364V293.364H332.265L332.405 290.511L329.409 290.364ZM327.278 290.364L324.28 290.252L324.164 293.364H327.278V290.364ZM328.139 287.86L330.537 289.663L330.544 289.654L328.139 287.86ZM330.252 286.173L329 283.447L328.993 283.451L330.252 286.173ZM336.032 286.253L334.554 288.864L334.561 288.868L334.568 288.872L336.032 286.253ZM337.887 288.038L335.297 289.551L335.297 289.551L337.887 288.038ZM337.727 293.054L335.323 291.26L335.318 291.266L335.313 291.273L337.727 293.054ZM335.552 294.554L334.682 291.683L332.552 292.329V294.554H335.552ZM335.552 294.696H332.552V297.242L335.064 297.656L335.552 294.696ZM338.242 296.161L335.922 298.062L335.929 298.071L338.242 296.161ZM338.402 301.727L335.926 300.033L335.923 300.037L338.402 301.727ZM336.218 303.574L337.532 306.271H337.532L336.218 303.574ZM333.067 304.249V301.249C332.24 301.249 331.616 301.108 331.138 300.898L329.933 303.645L328.727 306.392C330.084 306.987 331.549 307.249 333.067 307.249V304.249ZM329.933 303.645L331.145 300.901C330.649 300.682 330.352 300.426 330.155 300.164L327.758 301.967L325.36 303.77C326.24 304.941 327.394 305.803 328.721 306.389L329.933 303.645ZM327.758 301.967L330.172 300.186C330.012 299.97 329.904 299.708 329.884 299.306L326.888 299.455L323.891 299.603C323.966 301.107 324.438 302.52 325.343 303.748L327.758 301.967ZM326.888 299.455V302.455H329.125V299.455V296.455H326.888V299.455ZM329.125 299.455L326.135 299.696C326.229 300.86 326.648 301.962 327.424 302.893L329.729 300.973L332.033 299.052C332.055 299.078 332.08 299.118 332.099 299.165C332.117 299.21 332.117 299.232 332.115 299.213L329.125 299.455ZM329.729 300.973L327.437 302.909C328.146 303.748 329.032 304.342 330.003 304.733L331.122 301.949L332.241 299.166C332.064 299.094 332.022 299.038 332.02 299.036L329.729 300.973ZM331.122 301.949L330.003 304.733C330.976 305.124 331.998 305.295 333.031 305.295V302.295V299.295C332.667 299.295 332.417 299.236 332.241 299.166L331.122 301.949ZM333.031 302.295V305.295C334.162 305.295 335.287 305.098 336.342 304.622L335.108 301.887L333.875 299.152C333.723 299.221 333.463 299.295 333.031 299.295V302.295ZM335.108 301.887L336.342 304.622C337.376 304.155 338.292 303.453 338.978 302.483L336.529 300.751L334.08 299.018C334.079 299.019 334.048 299.074 333.875 299.152L335.108 301.887ZM336.529 300.751L338.978 302.483C339.707 301.452 340.044 300.274 340.044 299.064H337.044H334.044C334.044 299.089 334.042 299.102 334.042 299.105C334.042 299.107 334.042 299.101 334.046 299.089C334.049 299.077 334.055 299.063 334.062 299.049C334.069 299.035 334.075 299.024 334.08 299.018L336.529 300.751ZM337.044 299.064H340.044C340.044 297.875 339.741 296.705 339.061 295.66L336.547 297.297L334.033 298.934C334.033 298.935 334.032 298.934 334.031 298.931C334.03 298.929 334.031 298.929 334.032 298.933C334.034 298.94 334.044 298.979 334.044 299.064H337.044ZM336.547 297.297L339.069 295.673C338.382 294.606 337.416 293.85 336.33 293.358L335.091 296.09L333.851 298.822C333.955 298.869 334.004 298.906 334.019 298.918C334.032 298.93 334.03 298.929 334.024 298.921L336.547 297.297ZM335.091 296.09L336.33 293.358C335.199 292.845 333.969 292.655 332.747 292.655V295.655V298.655C333.371 298.655 333.704 298.755 333.851 298.822L335.091 296.09ZM332.747 295.655V292.655H331.291V295.655V298.655H332.747V295.655ZM331.291 295.655H334.291V293.702H331.291H328.291V295.655H331.291ZM331.291 293.702V296.702H332.747V293.702V290.702H331.291V293.702ZM332.747 293.702V296.702C333.83 296.702 334.921 296.505 335.941 296.017L334.647 293.311L333.352 290.605C333.284 290.638 333.108 290.702 332.747 290.702V293.702ZM334.647 293.311L335.93 296.023C336.942 295.544 337.815 294.821 338.449 293.845L335.934 292.21L333.419 290.575C333.419 290.575 333.421 290.572 333.425 290.568C333.428 290.564 333.431 290.561 333.432 290.561C333.432 290.56 333.429 290.563 333.419 290.57C333.409 290.576 333.391 290.586 333.364 290.599L334.647 293.311ZM335.934 292.21L338.435 293.867C339.114 292.842 339.405 291.693 339.405 290.541H336.405H333.405C333.405 290.578 333.402 290.602 333.401 290.615C333.399 290.627 333.398 290.63 333.4 290.624C333.401 290.618 333.405 290.607 333.411 290.593C333.418 290.579 333.425 290.565 333.433 290.553L335.934 292.21ZM336.405 290.541H339.405C339.405 289.472 339.164 288.386 338.572 287.396L335.996 288.934L333.421 290.473C333.412 290.459 333.406 290.445 333.401 290.434C333.396 290.422 333.395 290.416 333.395 290.417C333.395 290.417 333.405 290.455 333.405 290.541H336.405ZM335.996 288.934L338.572 287.396C337.995 286.431 337.18 285.695 336.209 285.199L334.842 287.869L333.475 290.539C333.497 290.551 333.49 290.55 333.469 290.531C333.459 290.522 333.449 290.511 333.44 290.5C333.431 290.489 333.425 290.479 333.421 290.473L335.996 288.934ZM334.842 287.869L336.222 285.205C335.224 284.688 334.152 284.487 333.102 284.487V287.487V290.487C333.39 290.487 333.478 290.541 333.462 290.533L334.842 287.869ZM333.102 287.487V284.487C332.097 284.487 331.113 284.674 330.177 285.062L331.327 287.833L332.476 290.604C332.653 290.531 332.853 290.487 333.102 290.487V287.487ZM331.327 287.833L330.192 285.056C329.207 285.459 328.333 286.08 327.644 286.933L329.977 288.819L332.31 290.705C332.319 290.694 332.345 290.658 332.461 290.611L331.327 287.833ZM329.977 288.819L327.657 286.917C326.86 287.889 326.47 289.037 326.413 290.217L329.409 290.364L332.405 290.511C332.407 290.482 332.409 290.505 332.389 290.56C332.367 290.618 332.334 290.676 332.298 290.72L329.977 288.819ZM329.409 290.364V287.364H327.278V290.364V293.364H329.409V290.364ZM327.278 290.364L330.276 290.475C330.29 290.093 330.391 289.858 330.537 289.663L328.139 287.86L325.742 286.057C324.811 287.295 324.337 288.729 324.28 290.252L327.278 290.364ZM328.139 287.86L330.544 289.654C330.765 289.358 331.065 289.103 331.512 288.896L330.252 286.173L328.993 283.451C327.7 284.049 326.591 284.919 325.735 286.066L328.139 287.86ZM330.252 286.173L331.505 288.899C331.955 288.693 332.484 288.57 333.138 288.57V285.57V282.57C331.696 282.57 330.302 282.849 329 283.447L330.252 286.173ZM333.138 285.57V288.57C333.855 288.57 334.287 288.713 334.554 288.864L336.032 286.253L337.51 283.643C336.166 282.882 334.669 282.57 333.138 282.57V285.57ZM336.032 286.253L334.568 288.872C334.942 289.081 335.155 289.309 335.297 289.551L337.887 288.038L340.478 286.525C339.755 285.287 338.731 284.325 337.495 283.634L336.032 286.253ZM337.887 288.038L335.297 289.551C335.46 289.83 335.535 290.107 335.535 290.435H338.535H341.535C341.535 289.046 341.178 287.724 340.478 286.525L337.887 288.038ZM338.535 290.435H335.535C335.535 290.904 335.423 291.125 335.323 291.26L337.727 293.054L340.132 294.847C341.109 293.538 341.535 292.013 341.535 290.435H338.535ZM337.727 293.054L335.313 291.273C335.191 291.438 335.026 291.579 334.682 291.683L335.552 294.554L336.423 297.425C337.914 296.973 339.198 296.113 340.142 294.835L337.727 293.054ZM335.552 294.554H332.552V294.696H335.552H338.552V294.554H335.552ZM335.552 294.696L335.064 297.656C335.603 297.745 335.805 297.919 335.922 298.062L338.242 296.161L340.563 294.259C339.39 292.828 337.798 292.026 336.041 291.736L335.552 294.696ZM338.242 296.161L335.929 298.071C336.069 298.241 336.21 298.504 336.21 299.064H339.21H342.21C342.21 297.315 341.706 295.644 340.556 294.251L338.242 296.161ZM339.21 299.064H336.21C336.21 299.471 336.111 299.764 335.926 300.033L338.402 301.727L340.878 303.421C341.771 302.116 342.21 300.634 342.21 299.064H339.21ZM338.402 301.727L335.923 300.037C335.71 300.351 335.4 300.635 334.904 300.877L336.218 303.574L337.532 306.271C338.883 305.613 340.029 304.667 340.881 303.417L338.402 301.727ZM336.218 303.574L334.904 300.877C334.447 301.1 333.856 301.249 333.067 301.249V304.249V307.249C334.633 307.249 336.143 306.947 337.532 306.271L336.218 303.574Z" fill="url(#paint10_linear_2001_126)" mask="url(#path-22-outside-3_2001_126)"/>
<mask id="path-24-outside-4_2001_126" maskUnits="userSpaceOnUse" x="239" y="346" width="21" height="25" fill="black">
<rect fill="white" x="239" y="346" width="21" height="25"/>
<path d="M242.936 364.271V362.46L250.926 349.818H252.24V352.624H251.352L245.315 362.176V362.318H256.075V364.271H242.936ZM251.494 368V363.721V362.877V349.818H253.589V368H251.494Z"/>
</mask>
<path d="M242.936 364.271H239.936V367.271H242.936V364.271ZM242.936 362.46L240.4 360.857L239.936 361.592V362.46H242.936ZM250.926 349.818V346.818H249.273L248.39 348.215L250.926 349.818ZM252.24 349.818H255.24V346.818H252.24V349.818ZM252.24 352.624V355.624H255.24V352.624H252.24ZM251.352 352.624V349.624H249.699L248.816 351.021L251.352 352.624ZM245.315 362.176L242.779 360.573L242.315 361.308V362.176H245.315ZM245.315 362.318H242.315V365.318H245.315V362.318ZM256.075 362.318H259.075V359.318H256.075V362.318ZM256.075 364.271V367.271H259.075V364.271H256.075ZM251.494 368H248.494V371H251.494V368ZM251.494 349.818V346.818H248.494V349.818H251.494ZM253.589 349.818H256.589V346.818H253.589V349.818ZM253.589 368V371H256.589V368H253.589ZM242.936 364.271H245.936V362.46H242.936H239.936V364.271H242.936ZM242.936 362.46L245.472 364.063L253.462 351.421L250.926 349.818L248.39 348.215L240.4 360.857L242.936 362.46ZM250.926 349.818V352.818H252.24V349.818V346.818H250.926V349.818ZM252.24 349.818H249.24V352.624H252.24H255.24V349.818H252.24ZM252.24 352.624V349.624H251.352V352.624V355.624H252.24V352.624ZM251.352 352.624L248.816 351.021L242.779 360.573L245.315 362.176L247.851 363.779L253.888 354.226L251.352 352.624ZM245.315 362.176H242.315V362.318H245.315H248.315V362.176H245.315ZM245.315 362.318V365.318H256.075V362.318V359.318H245.315V362.318ZM256.075 362.318H253.075V364.271H256.075H259.075V362.318H256.075ZM256.075 364.271V361.271H242.936V364.271V367.271H256.075V364.271ZM251.494 368H254.494V363.721H251.494H248.494V368H251.494ZM251.494 363.721H254.494V362.877H251.494H248.494V363.721H251.494ZM251.494 362.877H254.494V349.818H251.494H248.494V362.877H251.494ZM251.494 349.818V352.818H253.589V349.818V346.818H251.494V349.818ZM253.589 349.818H250.589V368H253.589H256.589V349.818H253.589ZM253.589 368V365H251.494V368V371H253.589V368Z" fill="url(#paint11_linear_2001_126)" mask="url(#path-24-outside-4_2001_126)"/>
<mask id="path-26-outside-5_2001_126" maskUnits="userSpaceOnUse" x="161" y="282" width="18" height="26" fill="black">
<rect fill="white" x="161" y="282" width="18" height="26"/>
<path d="M169.959 304.249C168.917 304.249 167.979 304.041 167.145 303.627C166.31 303.213 165.641 302.645 165.138 301.923C164.635 301.201 164.36 300.378 164.313 299.455H166.443C166.526 300.277 166.899 300.958 167.562 301.496C168.231 302.029 169.03 302.295 169.959 302.295C170.705 302.295 171.368 302.121 171.948 301.772C172.534 301.422 172.992 300.943 173.324 300.333C173.661 299.718 173.83 299.022 173.83 298.247C173.83 297.454 173.655 296.747 173.306 296.125C172.963 295.498 172.489 295.004 171.885 294.643C171.282 294.282 170.592 294.098 169.817 294.092C169.261 294.086 168.689 294.172 168.103 294.35C167.518 294.521 167.035 294.743 166.656 295.016L164.597 294.767L165.698 285.818H175.144V287.771H167.544L166.905 293.134H167.011C167.384 292.838 167.852 292.592 168.414 292.397C168.976 292.201 169.562 292.104 170.172 292.104C171.285 292.104 172.276 292.37 173.146 292.903C174.022 293.429 174.709 294.152 175.206 295.069C175.709 295.986 175.96 297.034 175.96 298.212C175.96 299.372 175.7 300.407 175.179 301.319C174.664 302.224 173.954 302.941 173.048 303.467C172.143 303.988 171.113 304.249 169.959 304.249Z"/>
</mask>
<path d="M167.145 303.627L165.811 306.314H165.811L167.145 303.627ZM165.138 301.923L167.6 300.208H167.6L165.138 301.923ZM164.313 299.455V296.455H161.155L161.317 299.608L164.313 299.455ZM166.443 299.455L169.428 299.154L169.156 296.455H166.443V299.455ZM167.562 301.496L165.67 303.825L165.681 303.834L165.693 303.843L167.562 301.496ZM171.948 301.772L170.412 299.195L170.4 299.201L171.948 301.772ZM173.324 300.333L170.693 298.892L170.688 298.9L173.324 300.333ZM173.306 296.125L170.674 297.565L170.682 297.58L170.69 297.595L173.306 296.125ZM169.817 294.092L169.785 297.092L169.794 297.092L169.817 294.092ZM168.103 294.35L168.947 297.229L168.96 297.225L168.973 297.221L168.103 294.35ZM166.656 295.016L166.297 297.994L167.458 298.134L168.407 297.452L166.656 295.016ZM164.597 294.767L161.619 294.401L161.252 297.385L164.237 297.745L164.597 294.767ZM165.698 285.818V282.818H163.044L162.72 285.452L165.698 285.818ZM175.144 285.818H178.144V282.818H175.144V285.818ZM175.144 287.771V290.771H178.144V287.771H175.144ZM167.544 287.771V284.771H164.881L164.565 287.416L167.544 287.771ZM166.905 293.134L163.926 292.778L163.526 296.134H166.905V293.134ZM167.011 293.134V296.134H168.057L168.876 295.483L167.011 293.134ZM173.146 292.903L171.58 295.461L171.59 295.467L171.6 295.474L173.146 292.903ZM175.206 295.069L172.568 296.498L172.572 296.505L172.575 296.511L175.206 295.069ZM175.179 301.319L172.574 299.83L172.571 299.836L175.179 301.319ZM173.048 303.467L174.544 306.068L174.551 306.064L174.557 306.061L173.048 303.467ZM169.959 304.249V301.249C169.325 301.249 168.852 301.125 168.479 300.94L167.145 303.627L165.811 306.314C167.107 306.958 168.51 307.249 169.959 307.249V304.249ZM167.145 303.627L168.479 300.94C168.068 300.736 167.798 300.492 167.6 300.208L165.138 301.923L162.677 303.638C163.485 304.798 164.552 305.689 165.811 306.314L167.145 303.627ZM165.138 301.923L167.6 300.208C167.434 299.97 167.329 299.694 167.309 299.301L164.313 299.455L161.317 299.608C161.391 301.062 161.836 302.431 162.677 303.638L165.138 301.923ZM164.313 299.455V302.455H166.443V299.455V296.455H164.313V299.455ZM166.443 299.455L163.458 299.755C163.624 301.401 164.41 302.801 165.67 303.825L167.562 301.496L169.454 299.168C169.421 299.142 169.408 299.126 169.406 299.124C169.404 299.122 169.405 299.123 169.407 299.126C169.41 299.13 169.413 299.134 169.416 299.141C169.42 299.147 169.423 299.153 169.425 299.16C169.428 299.166 169.43 299.171 169.431 299.175C169.433 299.182 169.43 299.177 169.428 299.154L166.443 299.455ZM167.562 301.496L165.693 303.843C166.94 304.836 168.414 305.295 169.959 305.295V302.295V299.295C169.646 299.295 169.521 299.222 169.431 299.15L167.562 301.496ZM169.959 302.295V305.295C171.193 305.295 172.401 305 173.495 304.342L171.948 301.772L170.4 299.201C170.334 299.241 170.216 299.295 169.959 299.295V302.295ZM171.948 301.772L173.483 304.349C174.54 303.719 175.375 302.841 175.959 301.766L173.324 300.333L170.688 298.9C170.609 299.046 170.527 299.126 170.412 299.195L171.948 301.772ZM173.324 300.333L175.954 301.775C176.559 300.673 176.83 299.473 176.83 298.247H173.83H170.83C170.83 298.572 170.763 298.763 170.693 298.892L173.324 300.333ZM173.83 298.247H176.83C176.83 296.999 176.55 295.775 175.921 294.656L173.306 296.125L170.69 297.595C170.76 297.719 170.83 297.91 170.83 298.247H173.83ZM173.306 296.125L175.938 294.685C175.342 293.597 174.495 292.708 173.425 292.068L171.885 294.643L170.346 297.217C170.483 297.299 170.583 297.399 170.674 297.565L173.306 296.125ZM171.885 294.643L173.425 292.068C172.317 291.405 171.093 291.102 169.84 291.092L169.817 294.092L169.794 297.092C170.091 297.095 170.247 297.158 170.346 297.217L171.885 294.643ZM169.817 294.092L169.849 291.092C168.958 291.083 168.083 291.221 167.233 291.479L168.103 294.35L168.973 297.221C169.296 297.123 169.563 297.09 169.785 297.092L169.817 294.092ZM168.103 294.35L167.26 291.471C166.444 291.71 165.63 292.059 164.905 292.58L166.656 295.016L168.407 297.452C168.441 297.428 168.591 297.333 168.947 297.229L168.103 294.35ZM166.656 295.016L167.016 292.037L164.956 291.789L164.597 294.767L164.237 297.745L166.297 297.994L166.656 295.016ZM164.597 294.767L167.574 295.133L168.675 286.184L165.698 285.818L162.72 285.452L161.619 294.401L164.597 294.767ZM165.698 285.818V288.818H175.144V285.818V282.818H165.698V285.818ZM175.144 285.818H172.144V287.771H175.144H178.144V285.818H175.144ZM175.144 287.771V284.771H167.544V287.771V290.771H175.144V287.771ZM167.544 287.771L164.565 287.416L163.926 292.778L166.905 293.134L169.884 293.489L170.523 288.126L167.544 287.771ZM166.905 293.134V296.134H167.011V293.134V290.134H166.905V293.134ZM167.011 293.134L168.876 295.483C168.928 295.442 169.079 295.342 169.399 295.231L168.414 292.397L167.43 289.563C166.625 289.842 165.84 290.233 165.147 290.784L167.011 293.134ZM168.414 292.397L169.399 295.231C169.637 295.148 169.889 295.104 170.172 295.104V292.104V289.104C169.236 289.104 168.316 289.255 167.43 289.563L168.414 292.397ZM170.172 292.104V295.104C170.784 295.104 171.223 295.243 171.58 295.461L173.146 292.903L174.713 290.344C173.329 289.497 171.786 289.104 170.172 289.104V292.104ZM173.146 292.903L171.6 295.474C172.007 295.718 172.321 296.042 172.568 296.498L175.206 295.069L177.843 293.639C177.096 292.261 176.037 291.141 174.692 290.332L173.146 292.903ZM175.206 295.069L172.575 296.511C172.807 296.933 172.96 297.474 172.96 298.212H175.96H178.96C178.96 296.594 178.611 295.039 177.836 293.626L175.206 295.069ZM175.96 298.212H172.96C172.96 298.906 172.81 299.419 172.574 299.83L175.179 301.319L177.784 302.807C178.59 301.396 178.96 299.838 178.96 298.212H175.96ZM175.179 301.319L172.571 299.836C172.32 300.278 171.99 300.612 171.54 300.874L173.048 303.467L174.557 306.061C175.918 305.269 177.009 304.171 177.787 302.802L175.179 301.319ZM173.048 303.467L171.553 300.867C171.149 301.099 170.645 301.249 169.959 301.249V304.249V307.249C171.582 307.249 173.137 306.877 174.544 306.068L173.048 303.467Z" fill="url(#paint12_linear_2001_126)" mask="url(#path-26-outside-5_2001_126)"/>
<mask id="path-28-outside-6_2001_126" maskUnits="userSpaceOnUse" x="156" y="190" width="20" height="26" fill="black">
<rect fill="white" x="156" y="190" width="20" height="26"/>
<path d="M166.119 212.249C165.373 212.237 164.627 212.095 163.882 211.822C163.136 211.55 162.455 211.092 161.84 210.446C161.224 209.795 160.73 208.916 160.357 207.81C159.984 206.697 159.798 205.3 159.798 203.619C159.798 202.009 159.949 200.583 160.25 199.34C160.552 198.091 160.99 197.041 161.564 196.189C162.139 195.33 162.831 194.679 163.642 194.235C164.459 193.792 165.379 193.57 166.403 193.57C167.421 193.57 168.326 193.774 169.119 194.182C169.918 194.585 170.569 195.147 171.073 195.869C171.576 196.591 171.901 197.423 172.049 198.364H169.883C169.682 197.547 169.291 196.869 168.711 196.331C168.131 195.792 167.362 195.523 166.403 195.523C164.994 195.523 163.884 196.135 163.074 197.36C162.269 198.586 161.863 200.305 161.857 202.518H161.999C162.331 202.015 162.724 201.586 163.18 201.231C163.642 200.87 164.151 200.592 164.707 200.397C165.264 200.201 165.852 200.104 166.474 200.104C167.516 200.104 168.468 200.364 169.333 200.885C170.197 201.4 170.889 202.113 171.41 203.025C171.931 203.93 172.191 204.969 172.191 206.141C172.191 207.265 171.94 208.295 171.437 209.23C170.933 210.159 170.226 210.899 169.315 211.45C168.409 211.994 167.344 212.26 166.119 212.249ZM166.119 210.295C166.864 210.295 167.533 210.109 168.125 209.736C168.723 209.363 169.193 208.863 169.537 208.236C169.886 207.608 170.061 206.91 170.061 206.141C170.061 205.389 169.892 204.705 169.554 204.09C169.223 203.468 168.764 202.974 168.178 202.607C167.598 202.24 166.936 202.057 166.19 202.057C165.628 202.057 165.104 202.169 164.618 202.394C164.133 202.613 163.707 202.915 163.34 203.3C162.979 203.684 162.695 204.125 162.488 204.623C162.281 205.114 162.177 205.632 162.177 206.176C162.177 206.898 162.346 207.573 162.683 208.2C163.026 208.828 163.494 209.334 164.086 209.718C164.683 210.103 165.361 210.295 166.119 210.295Z"/>
</mask>
<path d="M166.119 212.249L166.071 215.248L166.08 215.248L166.09 215.248L166.119 212.249ZM163.882 211.822L162.853 214.641L163.882 211.822ZM161.84 210.446L159.66 212.507L159.669 212.517L161.84 210.446ZM160.357 207.81L157.512 208.763L157.514 208.767L160.357 207.81ZM160.25 199.34L163.166 200.048L163.167 200.045L160.25 199.34ZM161.564 196.189L164.053 197.865L164.058 197.857L161.564 196.189ZM163.642 194.235L162.209 191.6L162.201 191.604L163.642 194.235ZM169.119 194.182L167.746 196.849L167.758 196.855L167.77 196.861L169.119 194.182ZM171.073 195.869L173.534 194.154L173.534 194.154L171.073 195.869ZM172.049 198.364V201.364H175.558L175.013 197.898L172.049 198.364ZM169.883 198.364L166.97 199.081L167.532 201.364H169.883V198.364ZM168.711 196.331L166.67 198.529L166.67 198.529L168.711 196.331ZM163.074 197.36L160.572 195.705L160.566 195.713L163.074 197.36ZM161.857 202.518L158.857 202.51L158.849 205.518H161.857V202.518ZM161.999 202.518V205.518H163.616L164.505 204.169L161.999 202.518ZM163.18 201.231L165.024 203.598L165.028 203.594L163.18 201.231ZM164.707 200.397L163.713 197.566L164.707 200.397ZM169.333 200.885L167.784 203.454L167.79 203.458L167.797 203.462L169.333 200.885ZM171.41 203.025L168.805 204.513L168.809 204.52L171.41 203.025ZM171.437 209.23L174.075 210.658L174.079 210.651L171.437 209.23ZM169.315 211.45L170.861 214.021L170.866 214.018L169.315 211.45ZM168.125 209.736L166.537 207.191L166.526 207.198L168.125 209.736ZM169.537 208.236L166.915 206.777L166.91 206.786L166.905 206.796L169.537 208.236ZM169.554 204.09L166.907 205.502L166.915 205.517L166.924 205.532L169.554 204.09ZM168.178 202.607L166.574 205.143L166.586 205.15L168.178 202.607ZM164.618 202.394L165.852 205.129L165.866 205.122L165.88 205.116L164.618 202.394ZM163.34 203.3L161.169 201.229L161.161 201.238L161.152 201.247L163.34 203.3ZM162.488 204.623L165.252 205.788L165.257 205.776L162.488 204.623ZM162.683 208.2L160.041 209.621L160.046 209.631L160.051 209.64L162.683 208.2ZM164.086 209.718L162.451 212.234L162.462 212.241L164.086 209.718ZM166.119 212.249L166.166 209.249C165.777 209.243 165.362 209.169 164.91 209.004L163.882 211.822L162.853 214.641C163.893 215.02 164.969 215.231 166.071 215.248L166.119 212.249ZM163.882 211.822L164.91 209.004C164.648 208.909 164.347 208.729 164.01 208.375L161.84 210.446L159.669 212.517C160.563 213.454 161.623 214.192 162.853 214.641L163.882 211.822ZM161.84 210.446L164.02 208.385C163.778 208.13 163.475 207.667 163.2 206.852L160.357 207.81L157.514 208.767C157.985 210.166 158.67 211.461 159.66 212.507L161.84 210.446ZM160.357 207.81L163.202 206.856C162.966 206.152 162.798 205.104 162.798 203.619H159.798H156.798C156.798 205.496 157.003 207.241 157.512 208.763L160.357 207.81ZM159.798 203.619H162.798C162.798 202.19 162.932 201.009 163.166 200.048L160.25 199.34L157.335 198.632C156.965 200.157 156.798 201.829 156.798 203.619H159.798ZM160.25 199.34L163.167 200.045C163.405 199.059 163.721 198.358 164.053 197.865L161.564 196.189L159.076 194.513C158.26 195.724 157.7 197.123 157.334 198.635L160.25 199.34ZM161.564 196.189L164.058 197.857C164.395 197.352 164.742 197.053 165.082 196.867L163.642 194.235L162.201 191.604C160.92 192.306 159.882 193.309 159.071 194.52L161.564 196.189ZM163.642 194.235L165.074 196.871C165.408 196.69 165.827 196.57 166.403 196.57V193.57V190.57C164.93 190.57 163.509 190.893 162.209 191.6L163.642 194.235ZM166.403 193.57V196.57C167.011 196.57 167.434 196.689 167.746 196.849L169.119 194.182L170.493 191.515C169.218 190.859 167.831 190.57 166.403 190.57V193.57ZM169.119 194.182L167.77 196.861C168.132 197.044 168.398 197.278 168.611 197.584L171.073 195.869L173.534 194.154C172.741 193.016 171.705 192.126 170.469 191.503L169.119 194.182ZM171.073 195.869L168.611 197.584C168.833 197.903 169.002 198.3 169.086 198.83L172.049 198.364L175.013 197.898C174.8 196.545 174.318 195.279 173.534 194.154L171.073 195.869ZM172.049 198.364V195.364H169.883V198.364V201.364H172.049V198.364ZM169.883 198.364L172.796 197.646C172.464 196.299 171.788 195.094 170.752 194.132L168.711 196.331L166.67 198.529C166.794 198.644 166.9 198.795 166.97 199.081L169.883 198.364ZM168.711 196.331L170.752 194.132C169.505 192.974 167.95 192.523 166.403 192.523V195.523V198.523C166.603 198.523 166.692 198.551 166.708 198.556C166.716 198.559 166.711 198.558 166.7 198.551C166.688 198.544 166.677 198.536 166.67 198.529L168.711 196.331ZM166.403 195.523V192.523C163.937 192.523 161.91 193.683 160.572 195.705L163.074 197.36L165.575 199.016C165.859 198.587 166.052 198.523 166.403 198.523V195.523ZM163.074 197.36L160.566 195.713C159.317 197.614 158.864 199.992 158.857 202.51L161.857 202.518L164.857 202.526C164.862 200.618 165.22 199.557 165.581 199.008L163.074 197.36ZM161.857 202.518V205.518H161.999V202.518V199.518H161.857V202.518ZM161.999 202.518L164.505 204.169C164.664 203.927 164.837 203.743 165.024 203.598L163.18 201.231L161.336 198.865C160.612 199.429 159.998 200.104 159.494 200.868L161.999 202.518ZM163.18 201.231L165.028 203.594C165.231 203.436 165.451 203.315 165.701 203.227L164.707 200.397L163.713 197.566C162.851 197.869 162.053 198.304 161.332 198.868L163.18 201.231ZM164.707 200.397L165.701 203.227C165.921 203.15 166.172 203.104 166.474 203.104V200.104V197.104C165.532 197.104 164.606 197.253 163.713 197.566L164.707 200.397ZM166.474 200.104V203.104C166.988 203.104 167.403 203.225 167.784 203.454L169.333 200.885L170.881 198.316C169.534 197.504 168.043 197.104 166.474 197.104V200.104ZM169.333 200.885L167.797 203.462C168.197 203.701 168.529 204.03 168.805 204.513L171.41 203.025L174.015 201.536C173.249 200.196 172.196 199.099 170.868 198.308L169.333 200.885ZM171.41 203.025L168.809 204.52C169.038 204.917 169.191 205.428 169.191 206.141H172.191H175.191C175.191 204.509 174.824 202.943 174.01 201.529L171.41 203.025ZM172.191 206.141H169.191C169.191 206.799 169.049 207.336 168.795 207.809L171.437 209.23L174.079 210.651C174.831 209.254 175.191 207.731 175.191 206.141H172.191ZM171.437 209.23L168.798 207.802C168.552 208.257 168.222 208.605 167.764 208.882L169.315 211.45L170.866 214.018C172.231 213.193 173.315 212.061 174.075 210.658L171.437 209.23ZM169.315 211.45L167.769 208.879C167.41 209.094 166.908 209.256 166.148 209.249L166.119 212.249L166.09 215.248C167.779 215.265 169.408 214.894 170.861 214.021L169.315 211.45ZM166.119 210.295V213.295C167.391 213.295 168.622 212.969 169.724 212.274L168.125 209.736L166.526 207.198C166.445 207.249 166.338 207.295 166.119 207.295V210.295ZM168.125 209.736L169.713 212.282C170.755 211.632 171.582 210.748 172.168 209.676L169.537 208.236L166.905 206.796C166.805 206.978 166.691 207.095 166.537 207.191L168.125 209.736ZM169.537 208.236L172.158 209.695C172.773 208.589 173.061 207.383 173.061 206.141H170.061H167.061C167.061 206.437 166.999 206.627 166.915 206.777L169.537 208.236ZM170.061 206.141H173.061C173.061 204.922 172.782 203.737 172.185 202.648L169.554 204.09L166.924 205.532C167.002 205.674 167.061 205.856 167.061 206.141H170.061ZM169.554 204.09L172.202 202.678C171.628 201.603 170.81 200.715 169.771 200.065L168.178 202.607L166.586 205.15C166.719 205.233 166.818 205.334 166.907 205.502L169.554 204.09ZM168.178 202.607L169.782 200.072C168.681 199.375 167.452 199.057 166.19 199.057V202.057V205.057C166.419 205.057 166.516 205.105 166.574 205.142L168.178 202.607ZM166.19 202.057V199.057C165.215 199.057 164.258 199.255 163.357 199.672L164.618 202.394L165.88 205.116C165.95 205.084 166.04 205.057 166.19 205.057V202.057ZM164.618 202.394L163.385 199.66C162.548 200.037 161.803 200.564 161.169 201.229L163.34 203.3L165.511 205.37C165.611 205.266 165.719 205.189 165.852 205.129L164.618 202.394ZM163.34 203.3L161.152 201.247C160.54 201.899 160.061 202.646 159.718 203.469L162.488 204.623L165.257 205.776C165.329 205.604 165.418 205.469 165.528 205.353L163.34 203.3ZM162.488 204.623L159.723 203.457C159.357 204.325 159.177 205.24 159.177 206.176H162.177H165.177C165.177 206.023 165.204 205.902 165.252 205.788L162.488 204.623ZM162.177 206.176H159.177C159.177 207.387 159.465 208.551 160.041 209.621L162.683 208.2L165.325 206.779C165.226 206.595 165.177 206.409 165.177 206.176H162.177ZM162.683 208.2L160.051 209.64C160.629 210.697 161.437 211.575 162.451 212.234L164.086 209.718L165.721 207.203C165.551 207.092 165.423 206.958 165.315 206.76L162.683 208.2ZM164.086 209.718L162.462 212.241C163.576 212.958 164.825 213.295 166.119 213.295V210.295V207.295C165.897 207.295 165.791 207.248 165.709 207.196L164.086 209.718Z" fill="url(#paint13_linear_2001_126)" mask="url(#path-28-outside-6_2001_126)"/>
<defs>
<linearGradient id="paint0_linear_2001_126" x1="250" y1="100" x2="250" y2="400" gradientUnits="userSpaceOnUse">
<stop stop-color="#29F39A"/>
<stop offset="1" stop-color="#02A2F8"/>
</linearGradient>
<linearGradient id="paint1_linear_2001_126" x1="120" y1="159" x2="120" y2="191.01" gradientUnits="userSpaceOnUse">
<stop stop-color="#29F39A"/>
<stop offset="1" stop-color="#02A2F8"/>
</linearGradient>
<linearGradient id="paint2_linear_2001_126" x1="122" y1="307" x2="122" y2="339.01" gradientUnits="userSpaceOnUse">
<stop stop-color="#29F39A"/>
<stop offset="1" stop-color="#02A2F8"/>
</linearGradient>
<linearGradient id="paint3_linear_2001_126" x1="248" y1="376" x2="248" y2="408.01" gradientUnits="userSpaceOnUse">
<stop stop-color="#29F39A"/>
<stop offset="1" stop-color="#02A2F8"/>
</linearGradient>
<linearGradient id="paint4_linear_2001_126" x1="378" y1="307" x2="378" y2="339.01" gradientUnits="userSpaceOnUse">
<stop stop-color="#29F39A"/>
<stop offset="1" stop-color="#02A2F8"/>
</linearGradient>
<linearGradient id="paint5_linear_2001_126" x1="379" y1="159" x2="379" y2="191.01" gradientUnits="userSpaceOnUse">
<stop stop-color="#29F39A"/>
<stop offset="1" stop-color="#02A2F8"/>
</linearGradient>
<linearGradient id="paint6_linear_2001_126" x1="250" y1="87" x2="250" y2="119.01" gradientUnits="userSpaceOnUse">
<stop stop-color="#29F39A"/>
<stop offset="1" stop-color="#02A2F8"/>
</linearGradient>
<linearGradient id="paint7_linear_2001_126" x1="250" y1="172" x2="250" y2="328" gradientUnits="userSpaceOnUse">
<stop stop-color="#29F39A"/>
<stop offset="1" stop-color="#02A2F8"/>
</linearGradient>
<linearGradient id="paint8_linear_2001_126" x1="250" y1="119" x2="250" y2="149" gradientUnits="userSpaceOnUse">
<stop stop-color="#29F39A"/>
<stop offset="1" stop-color="#02A2F8"/>
</linearGradient>
<linearGradient id="paint9_linear_2001_126" x1="333" y1="188" x2="333" y2="218" gradientUnits="userSpaceOnUse">
<stop stop-color="#29F39A"/>
<stop offset="1" stop-color="#02A2F8"/>
</linearGradient>
<linearGradient id="paint10_linear_2001_126" x1="333" y1="280" x2="333" y2="310" gradientUnits="userSpaceOnUse">
<stop stop-color="#29F39A"/>
<stop offset="1" stop-color="#02A2F8"/>
</linearGradient>
<linearGradient id="paint11_linear_2001_126" x1="249.5" y1="344" x2="249.5" y2="374" gradientUnits="userSpaceOnUse">
<stop stop-color="#29F39A"/>
<stop offset="1" stop-color="#02A2F8"/>
</linearGradient>
<linearGradient id="paint12_linear_2001_126" x1="170" y1="280" x2="170" y2="310" gradientUnits="userSpaceOnUse">
<stop stop-color="#29F39A"/>
<stop offset="1" stop-color="#02A2F8"/>
</linearGradient>
<linearGradient id="paint13_linear_2001_126" x1="166" y1="188" x2="166" y2="218" gradientUnits="userSpaceOnUse">
<stop stop-color="#29F39A"/>
<stop offset="1" stop-color="#02A2F8"/>
</linearGradient>
</defs>
</svg>
